<?xml version="1.0" encoding="UTF-8" standalone="no"?>
<!DOCTYPE svg PUBLIC "-//W3C//DTD SVG 1.1//EN"
 "http://www.w3.org/Graphics/SVG/1.1/DTD/svg11.dtd">
<!-- Generated by graphviz version 2.26.3 (20100126.1600)
 -->
<!-- Title: tb_512::tb Pages: 1 -->
<svg width="330pt" height="214pt"
 viewBox="0.00 0.00 330.00 214.00" xmlns="http://www.w3.org/2000/svg" xmlns:xlink="http://www.w3.org/1999/xlink">
<g id="graph1" class="graph" transform="scale(1 1) rotate(0) translate(4 210)">
<title>tb_512::tb</title>
<polygon fill="white" stroke="white" points="-4,5 -4,-210 327,-210 327,5 -4,5"/>
<!-- Node1 -->
<g id="node1" class="node"><title>Node1</title>
<polygon fill="#bfbfbf" stroke="black" points="126,-0.5 126,-21.5 188,-21.5 188,-0.5 126,-0.5"/>
<text text-anchor="middle" x="157" y="-8.5" font-family="Helvetica,sans-Serif" font-size="10.00">tb_512::tb</text>
</g>
<!-- Node2 -->
<g id="node2" class="node"><title>Node2</title>
<polygon fill="white" stroke="#bfbfbf" points="-0.5,-177.5 -0.5,-198.5 66.5,-198.5 66.5,-177.5 -0.5,-177.5"/>
<text text-anchor="middle" x="33" y="-185.5" font-family="Helvetica,sans-Serif" font-size="10.00">sc_module</text>
</g>
<!-- Node2&#45;&gt;Node1 -->
<g id="edge2" class="edge"><title>Node2&#45;&gt;Node1</title>
<path fill="none" stroke="midnightblue" d="M33.6193,-167.142C35.0278,-147.96 39.3124,-119.344 52,-98 72.8064,-62.9987 113.053,-35.7572 137.225,-21.6484"/>
<polygon fill="midnightblue" stroke="midnightblue" points="30.1194,-167.047 33.0805,-177.22 37.1095,-167.421 30.1194,-167.047"/>
</g>
<!-- Node3 -->
<g id="node4" class="node"><title>Node3</title>
<a xlink:href="classtb__512_1_1Checker.html" target="_top" xlink:title="tb_512::Checker">
<polygon fill="white" stroke="black" points="60.5,-98.5 60.5,-119.5 153.5,-119.5 153.5,-98.5 60.5,-98.5"/>
<text text-anchor="middle" x="107" y="-106.5" font-family="Helvetica,sans-Serif" font-size="10.00">tb_512::Checker</text>
</a>
</g>
<!-- Node2&#45;&gt;Node3 -->
<g id="edge6" class="edge"><title>Node2&#45;&gt;Node3</title>
<path fill="none" stroke="midnightblue" d="M49.9573,-169.897C64.4714,-154.402 84.8787,-132.616 96.9418,-119.738"/>
<polygon fill="midnightblue" stroke="midnightblue" points="47.2619,-167.655 42.98,-177.346 52.3707,-172.44 47.2619,-167.655"/>
</g>
<!-- Node3&#45;&gt;Node1 -->
<g id="edge4" class="edge"><title>Node3&#45;&gt;Node1</title>
<path fill="none" stroke="#9a32cd" stroke-dasharray="5,2" d="M117.163,-89.0798C127.573,-68.6774 143.359,-37.7358 151.585,-21.6129"/>
<polygon fill="#9a32cd" stroke="#9a32cd" points="113.969,-87.6396 112.542,-98.1378 120.204,-90.8209 113.969,-87.6396"/>
<text text-anchor="middle" x="155" y="-57.5" font-family="Helvetica,sans-Serif" font-size="10.00"> i_chk</text>
</g>
<!-- Node4 -->
<g id="node7" class="node"><title>Node4</title>
<polygon fill="white" stroke="#bfbfbf" points="83.5,-177.5 83.5,-198.5 206.5,-198.5 206.5,-177.5 83.5,-177.5"/>
<text text-anchor="middle" x="145" y="-185.5" font-family="Helvetica,sans-Serif" font-size="10.00">std::unique_ptr&lt; Msg &gt;</text>
</g>
<!-- Node4&#45;&gt;Node1 -->
<g id="edge14" class="edge"><title>Node4&#45;&gt;Node1</title>
<path fill="none" stroke="#9a32cd" stroke-dasharray="5,2" d="M154.241,-168.196C166.331,-139.636 184.676,-85.3335 173,-40 171.336,-33.5406 167.895,-26.9807 164.629,-21.7376"/>
<polygon fill="#9a32cd" stroke="#9a32cd" points="150.975,-166.928 150.137,-177.49 157.379,-169.756 150.975,-166.928"/>
<text text-anchor="middle" x="185.5" y="-106.5" font-family="Helvetica,sans-Serif" font-size="10.00"> msg</text>
</g>
<!-- Node4&#45;&gt;Node3 -->
<g id="edge8" class="edge"><title>Node4&#45;&gt;Node3</title>
<path fill="none" stroke="#9a32cd" stroke-dasharray="5,2" d="M135.46,-168.166C128.076,-152.815 118.132,-132.143 112.165,-119.738"/>
<polygon fill="#9a32cd" stroke="#9a32cd" points="132.386,-169.851 139.875,-177.346 138.694,-166.817 132.386,-169.851"/>
<text text-anchor="middle" x="139.5" y="-142.5" font-family="Helvetica,sans-Serif" font-size="10.00"> msg</text>
</g>
<!-- Node5 -->
<g id="node9" class="node"><title>Node5</title>
<a xlink:title="STL class. ">
<polygon fill="white" stroke="#bfbfbf" points="236,-98.5 236,-119.5 298,-119.5 298,-98.5 236,-98.5"/>
<text text-anchor="middle" x="267" y="-106.5" font-family="Helvetica,sans-Serif" font-size="10.00">std::string</text>
</a>
</g>
<!-- Node5&#45;&gt;Node1 -->
<g id="edge10" class="edge"><title>Node5&#45;&gt;Node1</title>
<path fill="none" stroke="#9a32cd" stroke-dasharray="5,2" d="M252.156,-90.505C239.872,-75.8481 221.498,-55.3521 203,-40 194.718,-33.1267 184.691,-26.6241 176.114,-21.5251"/>
<polygon fill="#9a32cd" stroke="#9a32cd" points="249.58,-92.883 258.639,-98.377 254.983,-88.4328 249.58,-92.883"/>
<text text-anchor="middle" x="271" y="-70.5" font-family="Helvetica,sans-Serif" font-size="10.00"> drv_path</text>
<text text-anchor="middle" x="271" y="-57.5" font-family="Helvetica,sans-Serif" font-size="10.00">drv_request</text>
<text text-anchor="middle" x="271" y="-44.5" font-family="Helvetica,sans-Serif" font-size="10.00">drv_handler</text>
</g>
<!-- Node6 -->
<g id="node11" class="node"><title>Node6</title>
<a xlink:title="STL class. ">
<polygon fill="white" stroke="#bfbfbf" points="224,-171 224,-205 322,-205 322,-171 224,-171"/>
<text text-anchor="start" x="232" y="-192" font-family="Helvetica,sans-Serif" font-size="10.00">std::basic_string&lt;</text>
<text text-anchor="middle" x="273" y="-179" font-family="Helvetica,sans-Serif" font-size="10.00"> char &gt;</text>
</a>
</g>
<!-- Node6&#45;&gt;Node5 -->
<g id="edge12" class="edge"><title>Node6&#45;&gt;Node5</title>
<path fill="none" stroke="midnightblue" d="M270.921,-160.623C269.846,-146.473 268.597,-130.024 267.803,-119.567"/>
<polygon fill="midnightblue" stroke="midnightblue" points="267.451,-161.152 271.698,-170.858 274.431,-160.622 267.451,-161.152"/>
</g>
</g>
</svg>
