<?xml version="1.0" encoding="UTF-8" standalone="no"?>
<!DOCTYPE svg PUBLIC "-//W3C//DTD SVG 1.1//EN"
 "http://www.w3.org/Graphics/SVG/1.1/DTD/svg11.dtd">
<!-- Generated by graphviz version 2.26.3 (20100126.1600)
 -->
<!-- Title: tb_8::tb Pages: 1 -->
<svg width="74pt" height="146pt"
 viewBox="0.00 0.00 74.00 146.00" xmlns="http://www.w3.org/2000/svg" xmlns:xlink="http://www.w3.org/1999/xlink">
<g id="graph1" class="graph" transform="scale(1 1) rotate(0) translate(4 142)">
<title>tb_8::tb</title>
<polygon fill="white" stroke="white" points="-4,5 -4,-142 71,-142 71,5 -4,5"/>
<!-- Node1 -->
<g id="node1" class="node"><title>Node1</title>
<polygon fill="#bfbfbf" stroke="black" points="8,-58.5 8,-79.5 58,-79.5 58,-58.5 8,-58.5"/>
<text text-anchor="middle" x="33" y="-66.5" font-family="Helvetica,sans-Serif" font-size="10.00">tb_8::tb</text>
</g>
<!-- Node3 -->
<g id="node5" class="node"><title>Node3</title>
<a xlink:href="classtb__8_1_1test.html" target="_top" xlink:title="tb_8::test">
<polygon fill="white" stroke="black" points="3.5,-0.5 3.5,-21.5 62.5,-21.5 62.5,-0.5 3.5,-0.5"/>
<text text-anchor="middle" x="33" y="-8.5" font-family="Helvetica,sans-Serif" font-size="10.00">tb_8::test</text>
</a>
</g>
<!-- Node1&#45;&gt;Node3 -->
<g id="edge4" class="edge"><title>Node1&#45;&gt;Node3</title>
<path fill="none" stroke="midnightblue" d="M33,-48.1906C33,-39.1684 33,-28.9941 33,-21.5707"/>
<polygon fill="midnightblue" stroke="midnightblue" points="29.5001,-48.3619 33,-58.3619 36.5001,-48.3619 29.5001,-48.3619"/>
</g>
<!-- Node2 -->
<g id="node2" class="node"><title>Node2</title>
<polygon fill="white" stroke="#bfbfbf" points="-0.5,-116.5 -0.5,-137.5 66.5,-137.5 66.5,-116.5 -0.5,-116.5"/>
<text text-anchor="middle" x="33" y="-124.5" font-family="Helvetica,sans-Serif" font-size="10.00">sc_module</text>
</g>
<!-- Node2&#45;&gt;Node1 -->
<g id="edge2" class="edge"><title>Node2&#45;&gt;Node1</title>
<path fill="none" stroke="midnightblue" d="M33,-106.191C33,-97.1684 33,-86.9941 33,-79.5707"/>
<polygon fill="midnightblue" stroke="midnightblue" points="29.5001,-106.362 33,-116.362 36.5001,-106.362 29.5001,-106.362"/>
</g>
</g>
</svg>
