<?xml version="1.0" encoding="UTF-8" standalone="no"?>
<!DOCTYPE svg PUBLIC "-//W3C//DTD SVG 1.1//EN"
 "http://www.w3.org/Graphics/SVG/1.1/DTD/svg11.dtd">
<!-- Generated by graphviz version 2.26.3 (20100126.1600)
 -->
<!-- Title: tb_1::tb Pages: 1 -->
<svg width="346pt" height="214pt"
 viewBox="0.00 0.00 345.83 214.00" xmlns="http://www.w3.org/2000/svg" xmlns:xlink="http://www.w3.org/1999/xlink">
<g id="graph1" class="graph" transform="scale(1 1) rotate(0) translate(4 210)">
<title>tb_1::tb</title>
<polygon fill="white" stroke="white" points="-4,5 -4,-210 342.829,-210 342.829,5 -4,5"/>
<!-- Node1 -->
<g id="node1" class="node"><title>Node1</title>
<polygon fill="#bfbfbf" stroke="black" points="115.829,-0.5 115.829,-21.5 165.829,-21.5 165.829,-0.5 115.829,-0.5"/>
<text text-anchor="middle" x="140.829" y="-8.5" font-family="Helvetica,sans-Serif" font-size="10.00">tb_1::tb</text>
</g>
<!-- Node2 -->
<g id="node2" class="node"><title>Node2</title>
<polygon fill="white" stroke="#bfbfbf" points="14.329,-177.5 14.329,-198.5 81.329,-198.5 81.329,-177.5 14.329,-177.5"/>
<text text-anchor="middle" x="47.829" y="-185.5" font-family="Helvetica,sans-Serif" font-size="10.00">sc_module</text>
</g>
<!-- Node2&#45;&gt;Node1 -->
<g id="edge2" class="edge"><title>Node2&#45;&gt;Node1</title>
<path fill="none" stroke="midnightblue" d="M28.579,-169.739C11.9468,-151.637 -7.73462,-123.062 3.82899,-98 24.7226,-52.7175 82.2161,-28.4625 115.711,-17.8049"/>
<polygon fill="midnightblue" stroke="midnightblue" points="26.4082,-172.528 35.8831,-177.269 31.4327,-167.654 26.4082,-172.528"/>
</g>
<!-- Node3 -->
<g id="node4" class="node"><title>Node3</title>
<a xlink:href="classtb__1_1_1Checker.html" target="_top" xlink:title="tb_1::Checker">
<polygon fill="white" stroke="black" points="100.329,-98.5 100.329,-119.5 181.329,-119.5 181.329,-98.5 100.329,-98.5"/>
<text text-anchor="middle" x="140.829" y="-106.5" font-family="Helvetica,sans-Serif" font-size="10.00">tb_1::Checker</text>
</a>
</g>
<!-- Node2&#45;&gt;Node3 -->
<g id="edge6" class="edge"><title>Node2&#45;&gt;Node3</title>
<path fill="none" stroke="midnightblue" d="M68.1437,-170.743C86.4362,-155.205 112.75,-132.852 128.188,-119.738"/>
<polygon fill="midnightblue" stroke="midnightblue" points="65.7269,-168.204 60.3714,-177.346 70.2588,-173.539 65.7269,-168.204"/>
</g>
<!-- Node5 -->
<g id="node9" class="node"><title>Node5</title>
<a xlink:href="classtb__1_1_1ClkDiv.html" target="_top" xlink:title="tb_1::ClkDiv">
<polygon fill="white" stroke="black" points="12.329,-98.5 12.329,-119.5 83.329,-119.5 83.329,-98.5 12.329,-98.5"/>
<text text-anchor="middle" x="47.829" y="-106.5" font-family="Helvetica,sans-Serif" font-size="10.00">tb_1::ClkDiv</text>
</a>
</g>
<!-- Node2&#45;&gt;Node5 -->
<g id="edge12" class="edge"><title>Node2&#45;&gt;Node5</title>
<path fill="none" stroke="midnightblue" d="M47.829,-167.284C47.829,-152.031 47.829,-131.907 47.829,-119.738"/>
<polygon fill="midnightblue" stroke="midnightblue" points="44.3291,-167.346 47.829,-177.346 51.3291,-167.346 44.3291,-167.346"/>
</g>
<!-- Node3&#45;&gt;Node1 -->
<g id="edge4" class="edge"><title>Node3&#45;&gt;Node1</title>
<path fill="none" stroke="#9a32cd" stroke-dasharray="5,2" d="M140.829,-87.9567C140.829,-67.5572 140.829,-37.4427 140.829,-21.6129"/>
<polygon fill="#9a32cd" stroke="#9a32cd" points="137.329,-88.1378 140.829,-98.1378 144.329,-88.1379 137.329,-88.1378"/>
<text text-anchor="middle" x="154.829" y="-57.5" font-family="Helvetica,sans-Serif" font-size="10.00"> i_chk</text>
</g>
<!-- Node4 -->
<g id="node7" class="node"><title>Node4</title>
<polygon fill="white" stroke="#bfbfbf" points="99.329,-177.5 99.329,-198.5 222.329,-198.5 222.329,-177.5 99.329,-177.5"/>
<text text-anchor="middle" x="160.829" y="-185.5" font-family="Helvetica,sans-Serif" font-size="10.00">std::unique_ptr&lt; Msg &gt;</text>
</g>
<!-- Node4&#45;&gt;Node1 -->
<g id="edge18" class="edge"><title>Node4&#45;&gt;Node1</title>
<path fill="none" stroke="#9a32cd" stroke-dasharray="5,2" d="M170.577,-168.115C173.031,-162.909 175.598,-157.276 177.829,-152 187.402,-129.355 193.322,-122.336 189.829,-98 186.013,-71.4103 187.094,-62.7616 172.829,-40 168.449,-33.0117 161.925,-26.6747 155.908,-21.7195"/>
<polygon fill="#9a32cd" stroke="#9a32cd" points="167.296,-166.863 166.12,-177.393 173.605,-169.894 167.296,-166.863"/>
<text text-anchor="middle" x="202.329" y="-106.5" font-family="Helvetica,sans-Serif" font-size="10.00"> msg</text>
</g>
<!-- Node4&#45;&gt;Node3 -->
<g id="edge8" class="edge"><title>Node4&#45;&gt;Node3</title>
<path fill="none" stroke="#9a32cd" stroke-dasharray="5,2" d="M155.584,-167.284C151.723,-152.031 146.628,-131.907 143.547,-119.738"/>
<polygon fill="#9a32cd" stroke="#9a32cd" points="152.284,-168.511 158.132,-177.346 159.07,-166.793 152.284,-168.511"/>
<text text-anchor="middle" x="162.329" y="-142.5" font-family="Helvetica,sans-Serif" font-size="10.00"> msg</text>
</g>
<!-- Node5&#45;&gt;Node1 -->
<g id="edge10" class="edge"><title>Node5&#45;&gt;Node1</title>
<path fill="none" stroke="#9a32cd" stroke-dasharray="5,2" d="M64.5467,-90.6021C77.3532,-76.6002 95.5325,-56.9206 111.829,-40 117.756,-33.8459 124.499,-27.0892 129.99,-21.647"/>
<polygon fill="#9a32cd" stroke="#9a32cd" points="61.8363,-88.3799 57.6821,-98.1263 67.0076,-93.0978 61.8363,-88.3799"/>
<text text-anchor="middle" x="124.329" y="-57.5" font-family="Helvetica,sans-Serif" font-size="10.00"> i_div</text>
</g>
<!-- Node6 -->
<g id="node12" class="node"><title>Node6</title>
<a xlink:title="STL class. ">
<polygon fill="white" stroke="#bfbfbf" points="257.829,-98.5 257.829,-119.5 319.829,-119.5 319.829,-98.5 257.829,-98.5"/>
<text text-anchor="middle" x="288.829" y="-106.5" font-family="Helvetica,sans-Serif" font-size="10.00">std::string</text>
</a>
</g>
<!-- Node6&#45;&gt;Node1 -->
<g id="edge14" class="edge"><title>Node6&#45;&gt;Node1</title>
<path fill="none" stroke="#9a32cd" stroke-dasharray="5,2" d="M276.883,-89.4917C266.485,-74.0293 250.082,-52.9399 230.829,-40 211.209,-26.8136 185.185,-19.2861 166.169,-15.2235"/>
<polygon fill="#9a32cd" stroke="#9a32cd" points="274.187,-91.7685 282.554,-98.2689 280.067,-87.97 274.187,-91.7685"/>
<text text-anchor="middle" x="297.829" y="-70.5" font-family="Helvetica,sans-Serif" font-size="10.00"> drv_path</text>
<text text-anchor="middle" x="297.829" y="-57.5" font-family="Helvetica,sans-Serif" font-size="10.00">drv_request</text>
<text text-anchor="middle" x="297.829" y="-44.5" font-family="Helvetica,sans-Serif" font-size="10.00">drv_handler</text>
</g>
<!-- Node7 -->
<g id="node14" class="node"><title>Node7</title>
<a xlink:title="STL class. ">
<polygon fill="white" stroke="#bfbfbf" points="239.829,-171 239.829,-205 337.829,-205 337.829,-171 239.829,-171"/>
<text text-anchor="start" x="247.829" y="-192" font-family="Helvetica,sans-Serif" font-size="10.00">std::basic_string&lt;</text>
<text text-anchor="middle" x="288.829" y="-179" font-family="Helvetica,sans-Serif" font-size="10.00"> char &gt;</text>
</a>
</g>
<!-- Node7&#45;&gt;Node6 -->
<g id="edge16" class="edge"><title>Node7&#45;&gt;Node6</title>
<path fill="none" stroke="midnightblue" d="M288.829,-160.623C288.829,-146.473 288.829,-130.024 288.829,-119.567"/>
<polygon fill="midnightblue" stroke="midnightblue" points="285.329,-160.858 288.829,-170.858 292.329,-160.858 285.329,-160.858"/>
</g>
</g>
</svg>
