<?xml version="1.0" encoding="UTF-8" standalone="no"?>
<!DOCTYPE svg PUBLIC "-//W3C//DTD SVG 1.1//EN"
 "http://www.w3.org/Graphics/SVG/1.1/DTD/svg11.dtd">
<!-- Generated by graphviz version 2.26.3 (20100126.1600)
 -->
<!-- Title: tb_32::tb Pages: 1 -->
<svg width="330pt" height="214pt"
 viewBox="0.00 0.00 330.00 214.00" xmlns="http://www.w3.org/2000/svg" xmlns:xlink="http://www.w3.org/1999/xlink">
<g id="graph1" class="graph" transform="scale(1 1) rotate(0) translate(4 210)">
<title>tb_32::tb</title>
<polygon fill="white" stroke="white" points="-4,5 -4,-210 327,-210 327,5 -4,5"/>
<!-- Node1 -->
<g id="node1" class="node"><title>Node1</title>
<polygon fill="#bfbfbf" stroke="black" points="124,-0.5 124,-21.5 180,-21.5 180,-0.5 124,-0.5"/>
<text text-anchor="middle" x="152" y="-8.5" font-family="Helvetica,sans-Serif" font-size="10.00">tb_32::tb</text>
</g>
<!-- Node2 -->
<g id="node2" class="node"><title>Node2</title>
<polygon fill="white" stroke="#bfbfbf" points="-0.5,-177.5 -0.5,-198.5 66.5,-198.5 66.5,-177.5 -0.5,-177.5"/>
<text text-anchor="middle" x="33" y="-185.5" font-family="Helvetica,sans-Serif" font-size="10.00">sc_module</text>
</g>
<!-- Node2&#45;&gt;Node1 -->
<g id="edge2" class="edge"><title>Node2&#45;&gt;Node1</title>
<path fill="none" stroke="midnightblue" d="M33.7683,-167.229C35.2808,-148.108 39.6346,-119.532 52,-98 71.8258,-63.4774 110.524,-35.8831 133.533,-21.6188"/>
<polygon fill="midnightblue" stroke="midnightblue" points="30.2711,-167.079 33.1669,-177.27 37.2586,-167.497 30.2711,-167.079"/>
</g>
<!-- Node5 -->
<g id="node8" class="node"><title>Node5</title>
<a xlink:href="classtb__32_1_1Checker.html" target="_top" xlink:title="tb_32::Checker">
<polygon fill="white" stroke="black" points="60.5,-98.5 60.5,-119.5 147.5,-119.5 147.5,-98.5 60.5,-98.5"/>
<text text-anchor="middle" x="104" y="-106.5" font-family="Helvetica,sans-Serif" font-size="10.00">tb_32::Checker</text>
</a>
</g>
<!-- Node2&#45;&gt;Node5 -->
<g id="edge10" class="edge"><title>Node2&#45;&gt;Node5</title>
<path fill="none" stroke="midnightblue" d="M49.2698,-169.897C63.1955,-154.402 82.7755,-132.616 94.3496,-119.738"/>
<polygon fill="midnightblue" stroke="midnightblue" points="46.6567,-167.568 42.5754,-177.346 51.863,-172.248 46.6567,-167.568"/>
</g>
<!-- Node3 -->
<g id="node4" class="node"><title>Node3</title>
<a xlink:title="STL class. ">
<polygon fill="white" stroke="#bfbfbf" points="233,-98.5 233,-119.5 295,-119.5 295,-98.5 233,-98.5"/>
<text text-anchor="middle" x="264" y="-106.5" font-family="Helvetica,sans-Serif" font-size="10.00">std::string</text>
</a>
</g>
<!-- Node3&#45;&gt;Node1 -->
<g id="edge4" class="edge"><title>Node3&#45;&gt;Node1</title>
<path fill="none" stroke="#9a32cd" stroke-dasharray="5,2" d="M248.264,-90.6214C235.294,-76.0306 216.004,-55.5666 197,-40 188.803,-33.286 178.983,-26.8009 170.611,-21.6722"/>
<polygon fill="#9a32cd" stroke="#9a32cd" points="245.9,-93.2342 255.121,-98.4522 251.167,-88.6229 245.9,-93.2342"/>
<text text-anchor="middle" x="267" y="-70.5" font-family="Helvetica,sans-Serif" font-size="10.00"> drv_path</text>
<text text-anchor="middle" x="267" y="-57.5" font-family="Helvetica,sans-Serif" font-size="10.00">drv_request</text>
<text text-anchor="middle" x="267" y="-44.5" font-family="Helvetica,sans-Serif" font-size="10.00">drv_handler</text>
</g>
<!-- Node4 -->
<g id="node6" class="node"><title>Node4</title>
<a xlink:title="STL class. ">
<polygon fill="white" stroke="#bfbfbf" points="224,-171 224,-205 322,-205 322,-171 224,-171"/>
<text text-anchor="start" x="232" y="-192" font-family="Helvetica,sans-Serif" font-size="10.00">std::basic_string&lt;</text>
<text text-anchor="middle" x="273" y="-179" font-family="Helvetica,sans-Serif" font-size="10.00"> char &gt;</text>
</a>
</g>
<!-- Node4&#45;&gt;Node3 -->
<g id="edge6" class="edge"><title>Node4&#45;&gt;Node3</title>
<path fill="none" stroke="midnightblue" d="M269.881,-160.623C268.269,-146.473 266.395,-130.024 265.204,-119.567"/>
<polygon fill="midnightblue" stroke="midnightblue" points="266.438,-161.319 271.047,-170.858 273.393,-160.526 266.438,-161.319"/>
</g>
<!-- Node5&#45;&gt;Node1 -->
<g id="edge8" class="edge"><title>Node5&#45;&gt;Node1</title>
<path fill="none" stroke="#9a32cd" stroke-dasharray="5,2" d="M113.757,-89.0798C123.75,-68.6774 138.905,-37.7358 146.802,-21.6129"/>
<polygon fill="#9a32cd" stroke="#9a32cd" points="110.576,-87.6177 109.32,-98.1378 116.862,-90.6968 110.576,-87.6177"/>
<text text-anchor="middle" x="151" y="-57.5" font-family="Helvetica,sans-Serif" font-size="10.00"> i_chk</text>
</g>
<!-- Node6 -->
<g id="node11" class="node"><title>Node6</title>
<polygon fill="white" stroke="#bfbfbf" points="83.5,-177.5 83.5,-198.5 206.5,-198.5 206.5,-177.5 83.5,-177.5"/>
<text text-anchor="middle" x="145" y="-185.5" font-family="Helvetica,sans-Serif" font-size="10.00">std::unique_ptr&lt; Msg &gt;</text>
</g>
<!-- Node6&#45;&gt;Node1 -->
<g id="edge14" class="edge"><title>Node6&#45;&gt;Node1</title>
<path fill="none" stroke="#9a32cd" stroke-dasharray="5,2" d="M153.518,-168.098C164.607,-139.418 181.209,-84.97 169,-40 167.226,-33.4667 163.569,-26.8999 160.1,-21.6713"/>
<polygon fill="#9a32cd" stroke="#9a32cd" points="150.247,-166.85 149.746,-177.433 156.738,-169.473 150.247,-166.85"/>
<text text-anchor="middle" x="182.5" y="-106.5" font-family="Helvetica,sans-Serif" font-size="10.00"> msg</text>
</g>
<!-- Node6&#45;&gt;Node5 -->
<g id="edge12" class="edge"><title>Node6&#45;&gt;Node5</title>
<path fill="none" stroke="#9a32cd" stroke-dasharray="5,2" d="M134.707,-168.166C126.74,-152.815 116.011,-132.143 109.573,-119.738"/>
<polygon fill="#9a32cd" stroke="#9a32cd" points="131.758,-170.082 139.471,-177.346 137.971,-166.858 131.758,-170.082"/>
<text text-anchor="middle" x="137.5" y="-142.5" font-family="Helvetica,sans-Serif" font-size="10.00"> msg</text>
</g>
</g>
</svg>
