<?xml version="1.0" encoding="UTF-8" standalone="no"?>
<!DOCTYPE svg PUBLIC "-//W3C//DTD SVG 1.1//EN"
 "http://www.w3.org/Graphics/SVG/1.1/DTD/svg11.dtd">
<!-- Generated by graphviz version 2.26.3 (20100126.1600)
 -->
<!-- Title: tb_16::Checker Pages: 1 -->
<svg width="214pt" height="102pt"
 viewBox="0.00 0.00 214.00 102.00" xmlns="http://www.w3.org/2000/svg" xmlns:xlink="http://www.w3.org/1999/xlink">
<g id="graph1" class="graph" transform="scale(1 1) rotate(0) translate(4 98)">
<title>tb_16::Checker</title>
<polygon fill="white" stroke="white" points="-4,5 -4,-98 211,-98 211,5 -4,5"/>
<!-- Node1 -->
<g id="node1" class="node"><title>Node1</title>
<polygon fill="#bfbfbf" stroke="black" points="45.5,-0.5 45.5,-21.5 132.5,-21.5 132.5,-0.5 45.5,-0.5"/>
<text text-anchor="middle" x="89" y="-8.5" font-family="Helvetica,sans-Serif" font-size="10.00">tb_16::Checker</text>
</g>
<!-- Node2 -->
<g id="node2" class="node"><title>Node2</title>
<polygon fill="white" stroke="#bfbfbf" points="-0.5,-72.5 -0.5,-93.5 66.5,-93.5 66.5,-72.5 -0.5,-72.5"/>
<text text-anchor="middle" x="33" y="-80.5" font-family="Helvetica,sans-Serif" font-size="10.00">sc_module</text>
</g>
<!-- Node2&#45;&gt;Node1 -->
<g id="edge2" class="edge"><title>Node2&#45;&gt;Node1</title>
<path fill="none" stroke="midnightblue" d="M47.6237,-64.1981C58.1619,-50.649 72.0045,-32.8514 80.7031,-21.6674"/>
<polygon fill="midnightblue" stroke="midnightblue" points="44.6397,-62.3338 41.263,-72.3762 50.1652,-66.6314 44.6397,-62.3338"/>
</g>
<!-- Node3 -->
<g id="node4" class="node"><title>Node3</title>
<polygon fill="white" stroke="#bfbfbf" points="83.5,-72.5 83.5,-93.5 206.5,-93.5 206.5,-72.5 83.5,-72.5"/>
<text text-anchor="middle" x="145" y="-80.5" font-family="Helvetica,sans-Serif" font-size="10.00">std::unique_ptr&lt; Msg &gt;</text>
</g>
<!-- Node3&#45;&gt;Node1 -->
<g id="edge4" class="edge"><title>Node3&#45;&gt;Node1</title>
<path fill="none" stroke="#9a32cd" stroke-dasharray="5,2" d="M130.376,-64.1981C119.838,-50.649 105.996,-32.8514 97.2969,-21.6674"/>
<polygon fill="#9a32cd" stroke="#9a32cd" points="127.835,-66.6314 136.737,-72.3762 133.36,-62.3338 127.835,-66.6314"/>
<text text-anchor="middle" x="133.5" y="-44.5" font-family="Helvetica,sans-Serif" font-size="10.00"> msg</text>
</g>
</g>
</svg>
