<?xml version="1.0" encoding="UTF-8" standalone="no"?>
<!DOCTYPE svg PUBLIC "-//W3C//DTD SVG 1.1//EN"
 "http://www.w3.org/Graphics/SVG/1.1/DTD/svg11.dtd">
<!-- Generated by graphviz version 2.26.3 (20100126.1600)
 -->
<!-- Title: tb_8::tb Pages: 1 -->
<svg width="330pt" height="214pt"
 viewBox="0.00 0.00 330.00 214.00" xmlns="http://www.w3.org/2000/svg" xmlns:xlink="http://www.w3.org/1999/xlink">
<g id="graph1" class="graph" transform="scale(1 1) rotate(0) translate(4 210)">
<title>tb_8::tb</title>
<polygon fill="white" stroke="white" points="-4,5 -4,-210 327,-210 327,5 -4,5"/>
<!-- Node1 -->
<g id="node1" class="node"><title>Node1</title>
<polygon fill="#bfbfbf" stroke="black" points="122,-0.5 122,-21.5 172,-21.5 172,-0.5 122,-0.5"/>
<text text-anchor="middle" x="147" y="-8.5" font-family="Helvetica,sans-Serif" font-size="10.00">tb_8::tb</text>
</g>
<!-- Node2 -->
<g id="node2" class="node"><title>Node2</title>
<polygon fill="white" stroke="#bfbfbf" points="-0.5,-177.5 -0.5,-198.5 66.5,-198.5 66.5,-177.5 -0.5,-177.5"/>
<text text-anchor="middle" x="33" y="-185.5" font-family="Helvetica,sans-Serif" font-size="10.00">sc_module</text>
</g>
<!-- Node2&#45;&gt;Node1 -->
<g id="edge2" class="edge"><title>Node2&#45;&gt;Node1</title>
<path fill="none" stroke="midnightblue" d="M33.9293,-167.32C35.5542,-148.262 39.9827,-119.728 52,-98 70.8336,-63.9475 107.953,-35.9933 129.8,-21.5789"/>
<polygon fill="midnightblue" stroke="midnightblue" points="30.4355,-167.112 33.2603,-177.323 37.4199,-167.579 30.4355,-167.112"/>
</g>
<!-- Node5 -->
<g id="node8" class="node"><title>Node5</title>
<a xlink:href="classtb__8_1_1Checker.html" target="_top" xlink:title="tb_8::Checker">
<polygon fill="white" stroke="black" points="60.5,-98.5 60.5,-119.5 141.5,-119.5 141.5,-98.5 60.5,-98.5"/>
<text text-anchor="middle" x="101" y="-106.5" font-family="Helvetica,sans-Serif" font-size="10.00">tb_8::Checker</text>
</a>
</g>
<!-- Node2&#45;&gt;Node5 -->
<g id="edge10" class="edge"><title>Node2&#45;&gt;Node5</title>
<path fill="none" stroke="midnightblue" d="M48.9508,-169.469C62.2631,-154.003 80.774,-132.498 91.7573,-119.738"/>
<polygon fill="midnightblue" stroke="midnightblue" points="46.0419,-167.483 42.1708,-177.346 51.3472,-172.05 46.0419,-167.483"/>
</g>
<!-- Node3 -->
<g id="node4" class="node"><title>Node3</title>
<a xlink:title="STL class. ">
<polygon fill="white" stroke="#bfbfbf" points="230,-98.5 230,-119.5 292,-119.5 292,-98.5 230,-98.5"/>
<text text-anchor="middle" x="261" y="-106.5" font-family="Helvetica,sans-Serif" font-size="10.00">std::string</text>
</a>
</g>
<!-- Node3&#45;&gt;Node1 -->
<g id="edge4" class="edge"><title>Node3&#45;&gt;Node1</title>
<path fill="none" stroke="#9a32cd" stroke-dasharray="5,2" d="M244.288,-90.6531C230.633,-76.1386 210.473,-55.762 191,-40 182.751,-33.323 172.944,-26.7426 164.684,-21.5423"/>
<polygon fill="#9a32cd" stroke="#9a32cd" points="241.787,-93.1042 251.159,-98.047 246.915,-88.3391 241.787,-93.1042"/>
<text text-anchor="middle" x="262" y="-70.5" font-family="Helvetica,sans-Serif" font-size="10.00"> drv_path</text>
<text text-anchor="middle" x="262" y="-57.5" font-family="Helvetica,sans-Serif" font-size="10.00">drv_request</text>
<text text-anchor="middle" x="262" y="-44.5" font-family="Helvetica,sans-Serif" font-size="10.00">drv_handler</text>
</g>
<!-- Node4 -->
<g id="node6" class="node"><title>Node4</title>
<a xlink:title="STL class. ">
<polygon fill="white" stroke="#bfbfbf" points="224,-171 224,-205 322,-205 322,-171 224,-171"/>
<text text-anchor="start" x="232" y="-192" font-family="Helvetica,sans-Serif" font-size="10.00">std::basic_string&lt;</text>
<text text-anchor="middle" x="273" y="-179" font-family="Helvetica,sans-Serif" font-size="10.00"> char &gt;</text>
</a>
</g>
<!-- Node4&#45;&gt;Node3 -->
<g id="edge6" class="edge"><title>Node4&#45;&gt;Node3</title>
<path fill="none" stroke="midnightblue" d="M268.841,-160.623C266.692,-146.473 264.194,-130.024 262.605,-119.567"/>
<polygon fill="midnightblue" stroke="midnightblue" points="265.434,-161.497 270.396,-170.858 272.355,-160.446 265.434,-161.497"/>
</g>
<!-- Node5&#45;&gt;Node1 -->
<g id="edge8" class="edge"><title>Node5&#45;&gt;Node1</title>
<path fill="none" stroke="#9a32cd" stroke-dasharray="5,2" d="M110.35,-89.0798C119.927,-68.6774 134.451,-37.7358 142.018,-21.6129"/>
<polygon fill="#9a32cd" stroke="#9a32cd" points="107.179,-87.5983 106.099,-98.1378 113.516,-90.5727 107.179,-87.5983"/>
<text text-anchor="middle" x="147" y="-57.5" font-family="Helvetica,sans-Serif" font-size="10.00"> i_chk</text>
</g>
<!-- Node6 -->
<g id="node11" class="node"><title>Node6</title>
<polygon fill="white" stroke="#bfbfbf" points="83.5,-177.5 83.5,-198.5 206.5,-198.5 206.5,-177.5 83.5,-177.5"/>
<text text-anchor="middle" x="145" y="-185.5" font-family="Helvetica,sans-Serif" font-size="10.00">std::unique_ptr&lt; Msg &gt;</text>
</g>
<!-- Node6&#45;&gt;Node1 -->
<g id="edge14" class="edge"><title>Node6&#45;&gt;Node1</title>
<path fill="none" stroke="#9a32cd" stroke-dasharray="5,2" d="M152.16,-167.692C161.266,-138.881 174.507,-84.6748 163,-40 161.336,-33.5406 157.895,-26.9807 154.629,-21.7376"/>
<polygon fill="#9a32cd" stroke="#9a32cd" points="148.76,-166.824 148.932,-177.418 155.404,-169.029 148.76,-166.824"/>
<text text-anchor="middle" x="177.5" y="-106.5" font-family="Helvetica,sans-Serif" font-size="10.00"> msg</text>
</g>
<!-- Node6&#45;&gt;Node5 -->
<g id="edge12" class="edge"><title>Node6&#45;&gt;Node5</title>
<path fill="none" stroke="#9a32cd" stroke-dasharray="5,2" d="M134.197,-168.604C125.623,-153.21 113.956,-132.262 106.981,-119.738"/>
<polygon fill="#9a32cd" stroke="#9a32cd" points="131.142,-170.312 139.066,-177.346 137.258,-166.906 131.142,-170.312"/>
<text text-anchor="middle" x="136.5" y="-142.5" font-family="Helvetica,sans-Serif" font-size="10.00"> msg</text>
</g>
</g>
</svg>
