<?xml version="1.0" encoding="UTF-8" standalone="no"?>
<!DOCTYPE svg PUBLIC "-//W3C//DTD SVG 1.1//EN"
 "http://www.w3.org/Graphics/SVG/1.1/DTD/svg11.dtd">
<!-- Generated by graphviz version 2.26.3 (20100126.1600)
 -->
<!-- Title: Graphical Class Hierarchy Pages: 1 -->
<svg width="202pt" height="390pt"
 viewBox="0.00 0.00 202.00 390.00" xmlns="http://www.w3.org/2000/svg" xmlns:xlink="http://www.w3.org/1999/xlink">
<g id="graph1" class="graph" transform="scale(1 1) rotate(0) translate(4 386)">
<title>Graphical Class Hierarchy</title>
<polygon fill="white" stroke="white" points="-4,5 -4,-386 199,-386 199,5 -4,5"/>
<!-- Node1 -->
<g id="node1" class="node"><title>Node1</title>
<polygon fill="white" stroke="#bfbfbf" points="0,-180.5 0,-201.5 56,-201.5 56,-180.5 0,-180.5"/>
<text text-anchor="middle" x="28" y="-188.5" font-family="Helvetica,sans-Serif" font-size="10.00">Padding</text>
</g>
<!-- Node2 -->
<g id="node3" class="node"><title>Node2</title>
<a xlink:href="classpydrv16_1_1FCS.html" target="_top" xlink:title="pydrv16.FCS">
<polygon fill="white" stroke="black" points="104.5,-360.5 104.5,-381.5 181.5,-381.5 181.5,-360.5 104.5,-360.5"/>
<text text-anchor="middle" x="143" y="-368.5" font-family="Helvetica,sans-Serif" font-size="10.00">pydrv16.FCS</text>
</a>
</g>
<!-- Node1&#45;&gt;Node2 -->
<g id="edge2" class="edge"><title>Node1&#45;&gt;Node2</title>
<path fill="none" stroke="midnightblue" d="M30.8849,-211.563C36.6275,-245.108 52.5237,-311.79 92,-351 95.8463,-354.82 100.508,-357.931 105.432,-360.458"/>
<polygon fill="midnightblue" stroke="midnightblue" points="34.3204,-210.879 29.3073,-201.545 27.4056,-211.968 34.3204,-210.879"/>
</g>
<!-- Node3 -->
<g id="node5" class="node"><title>Node3</title>
<a xlink:href="classpydrv16_1_1Payload.html" target="_top" xlink:title="pydrv16.Payload">
<polygon fill="white" stroke="black" points="95.5,-320.5 95.5,-341.5 190.5,-341.5 190.5,-320.5 95.5,-320.5"/>
<text text-anchor="middle" x="143" y="-328.5" font-family="Helvetica,sans-Serif" font-size="10.00">pydrv16.Payload</text>
</a>
</g>
<!-- Node1&#45;&gt;Node3 -->
<g id="edge4" class="edge"><title>Node1&#45;&gt;Node3</title>
<path fill="none" stroke="midnightblue" d="M33.9117,-211.232C42.5818,-237.591 61.1523,-283.544 92,-311 96.2626,-314.794 101.329,-317.908 106.587,-320.453"/>
<polygon fill="midnightblue" stroke="midnightblue" points="37.21,-210.052 30.8856,-201.552 30.5289,-212.141 37.21,-210.052"/>
</g>
<!-- Node4 -->
<g id="node7" class="node"><title>Node4</title>
<a xlink:href="classpydrv1_1_1FCS.html" target="_top" xlink:title="pydrv1.FCS">
<polygon fill="white" stroke="black" points="107.5,-280.5 107.5,-301.5 178.5,-301.5 178.5,-280.5 107.5,-280.5"/>
<text text-anchor="middle" x="143" y="-288.5" font-family="Helvetica,sans-Serif" font-size="10.00">pydrv1.FCS</text>
</a>
</g>
<!-- Node1&#45;&gt;Node4 -->
<g id="edge6" class="edge"><title>Node1&#45;&gt;Node4</title>
<path fill="none" stroke="midnightblue" d="M39.4206,-210.519C50.7586,-228.405 69.6466,-254.534 92,-271 97.0539,-274.723 102.892,-277.855 108.773,-280.455"/>
<polygon fill="midnightblue" stroke="midnightblue" points="42.1317,-208.244 33.9244,-201.544 36.1621,-211.9 42.1317,-208.244"/>
</g>
<!-- Node5 -->
<g id="node9" class="node"><title>Node5</title>
<a xlink:href="classpydrv1_1_1Payload.html" target="_top" xlink:title="pydrv1.Payload">
<polygon fill="white" stroke="black" points="98.5,-240.5 98.5,-261.5 187.5,-261.5 187.5,-240.5 98.5,-240.5"/>
<text text-anchor="middle" x="143" y="-248.5" font-family="Helvetica,sans-Serif" font-size="10.00">pydrv1.Payload</text>
</a>
</g>
<!-- Node1&#45;&gt;Node5 -->
<g id="edge8" class="edge"><title>Node1&#45;&gt;Node5</title>
<path fill="none" stroke="midnightblue" d="M51.4818,-207.137C63.3291,-214.897 78.1025,-224.008 92,-231 98.7967,-234.42 106.326,-237.655 113.466,-240.488"/>
<polygon fill="midnightblue" stroke="midnightblue" points="53.3184,-204.155 43.0555,-201.523 49.4375,-209.98 53.3184,-204.155"/>
</g>
<!-- Node6 -->
<g id="node11" class="node"><title>Node6</title>
<a xlink:href="classpydrv32_1_1FCS.html" target="_top" xlink:title="pydrv32.FCS">
<polygon fill="white" stroke="black" points="104.5,-200.5 104.5,-221.5 181.5,-221.5 181.5,-200.5 104.5,-200.5"/>
<text text-anchor="middle" x="143" y="-208.5" font-family="Helvetica,sans-Serif" font-size="10.00">pydrv32.FCS</text>
</a>
</g>
<!-- Node1&#45;&gt;Node6 -->
<g id="edge10" class="edge"><title>Node1&#45;&gt;Node6</title>
<path fill="none" stroke="midnightblue" d="M66.076,-197.622C78.3578,-199.758 91.9794,-202.127 104.305,-204.271"/>
<polygon fill="midnightblue" stroke="midnightblue" points="66.584,-194.158 56.1322,-195.893 65.3846,-201.054 66.584,-194.158"/>
</g>
<!-- Node7 -->
<g id="node13" class="node"><title>Node7</title>
<a xlink:href="classpydrv32_1_1Payload.html" target="_top" xlink:title="pydrv32.Payload">
<polygon fill="white" stroke="black" points="95.5,-160.5 95.5,-181.5 190.5,-181.5 190.5,-160.5 95.5,-160.5"/>
<text text-anchor="middle" x="143" y="-168.5" font-family="Helvetica,sans-Serif" font-size="10.00">pydrv32.Payload</text>
</a>
</g>
<!-- Node1&#45;&gt;Node7 -->
<g id="edge12" class="edge"><title>Node1&#45;&gt;Node7</title>
<path fill="none" stroke="midnightblue" d="M65.9881,-184.393C75.4098,-182.755 85.6244,-180.978 95.4404,-179.271"/>
<polygon fill="midnightblue" stroke="midnightblue" points="65.3846,-180.946 56.1322,-186.107 66.584,-187.842 65.3846,-180.946"/>
</g>
<!-- Node8 -->
<g id="node15" class="node"><title>Node8</title>
<a xlink:href="classpydrv512_1_1FCS.html" target="_top" xlink:title="pydrv512.FCS">
<polygon fill="white" stroke="black" points="101.5,-120.5 101.5,-141.5 184.5,-141.5 184.5,-120.5 101.5,-120.5"/>
<text text-anchor="middle" x="143" y="-128.5" font-family="Helvetica,sans-Serif" font-size="10.00">pydrv512.FCS</text>
</a>
</g>
<!-- Node1&#45;&gt;Node8 -->
<g id="edge14" class="edge"><title>Node1&#45;&gt;Node8</title>
<path fill="none" stroke="midnightblue" d="M51.4818,-174.863C63.3291,-167.103 78.1025,-157.992 92,-151 98.7967,-147.58 106.326,-144.345 113.466,-141.512"/>
<polygon fill="midnightblue" stroke="midnightblue" points="49.4375,-172.02 43.0555,-180.477 53.3184,-177.845 49.4375,-172.02"/>
</g>
<!-- Node9 -->
<g id="node17" class="node"><title>Node9</title>
<a xlink:href="classpydrv512_1_1Payload.html" target="_top" xlink:title="pydrv512.Payload">
<polygon fill="white" stroke="black" points="92.5,-80.5 92.5,-101.5 193.5,-101.5 193.5,-80.5 92.5,-80.5"/>
<text text-anchor="middle" x="143" y="-88.5" font-family="Helvetica,sans-Serif" font-size="10.00">pydrv512.Payload</text>
</a>
</g>
<!-- Node1&#45;&gt;Node9 -->
<g id="edge16" class="edge"><title>Node1&#45;&gt;Node9</title>
<path fill="none" stroke="midnightblue" d="M39.4206,-171.481C50.7586,-153.595 69.6466,-127.466 92,-111 97.0539,-107.277 102.892,-104.145 108.773,-101.545"/>
<polygon fill="midnightblue" stroke="midnightblue" points="36.1621,-170.1 33.9244,-180.456 42.1317,-173.756 36.1621,-170.1"/>
</g>
<!-- Node10 -->
<g id="node19" class="node"><title>Node10</title>
<a xlink:href="classpydrv8_1_1FCS.html" target="_top" xlink:title="pydrv8.FCS">
<polygon fill="white" stroke="black" points="107.5,-40.5 107.5,-61.5 178.5,-61.5 178.5,-40.5 107.5,-40.5"/>
<text text-anchor="middle" x="143" y="-48.5" font-family="Helvetica,sans-Serif" font-size="10.00">pydrv8.FCS</text>
</a>
</g>
<!-- Node1&#45;&gt;Node10 -->
<g id="edge18" class="edge"><title>Node1&#45;&gt;Node10</title>
<path fill="none" stroke="midnightblue" d="M33.9117,-170.768C42.5818,-144.409 61.1523,-98.4556 92,-71 96.4757,-67.0165 101.837,-63.7823 107.377,-61.17"/>
<polygon fill="midnightblue" stroke="midnightblue" points="30.5289,-169.859 30.8856,-180.448 37.21,-171.948 30.5289,-169.859"/>
</g>
<!-- Node11 -->
<g id="node21" class="node"><title>Node11</title>
<a xlink:href="classpydrv8_1_1Payload.html" target="_top" xlink:title="pydrv8.Payload">
<polygon fill="white" stroke="black" points="98.5,-0.5 98.5,-21.5 187.5,-21.5 187.5,-0.5 98.5,-0.5"/>
<text text-anchor="middle" x="143" y="-8.5" font-family="Helvetica,sans-Serif" font-size="10.00">pydrv8.Payload</text>
</a>
</g>
<!-- Node1&#45;&gt;Node11 -->
<g id="edge20" class="edge"><title>Node1&#45;&gt;Node11</title>
<path fill="none" stroke="midnightblue" d="M30.8849,-170.437C36.6275,-136.892 52.5237,-70.2096 92,-31 95.8463,-27.1797 100.508,-24.0692 105.432,-21.5417"/>
<polygon fill="midnightblue" stroke="midnightblue" points="27.4056,-170.032 29.3073,-180.455 34.3204,-171.121 27.4056,-170.032"/>
</g>
</g>
</svg>
