<?xml version="1.0" encoding="UTF-8" standalone="no"?>
<!DOCTYPE svg PUBLIC "-//W3C//DTD SVG 1.1//EN"
 "http://www.w3.org/Graphics/SVG/1.1/DTD/svg11.dtd">
<!-- Generated by graphviz version 2.26.3 (20100126.1600)
 -->
<!-- Title: Graphical Class Hierarchy Pages: 1 -->
<svg width="276pt" height="190pt"
 viewBox="0.00 0.00 276.00 190.00" xmlns="http://www.w3.org/2000/svg" xmlns:xlink="http://www.w3.org/1999/xlink">
<g id="graph1" class="graph" transform="scale(1 1) rotate(0) translate(4 186)">
<title>Graphical Class Hierarchy</title>
<polygon fill="white" stroke="white" points="-4,5 -4,-186 273,-186 273,5 -4,5"/>
<!-- Node1 -->
<g id="node1" class="node"><title>Node1</title>
<polygon fill="white" stroke="#bfbfbf" points="0.5,-80.5 0.5,-101.5 83.5,-101.5 83.5,-80.5 0.5,-80.5"/>
<text text-anchor="middle" x="42" y="-88.5" font-family="Helvetica,sans-Serif" font-size="10.00">PydrvCallback</text>
</g>
<!-- Node2 -->
<g id="node3" class="node"><title>Node2</title>
<a xlink:href="classpydrv16_1_1dot3__by__len.html" target="_top" xlink:title="pydrv16.dot3_by_len">
<polygon fill="white" stroke="black" points="136.5,-160.5 136.5,-181.5 251.5,-181.5 251.5,-160.5 136.5,-160.5"/>
<text text-anchor="middle" x="194" y="-168.5" font-family="Helvetica,sans-Serif" font-size="10.00">pydrv16.dot3_by_len</text>
</a>
</g>
<!-- Node1&#45;&gt;Node2 -->
<g id="edge2" class="edge"><title>Node1&#45;&gt;Node2</title>
<path fill="none" stroke="midnightblue" d="M60.7167,-108.823C75.6872,-122.187 97.7814,-139.997 120,-151 127.513,-154.721 135.81,-157.822 144.05,-160.382"/>
<polygon fill="midnightblue" stroke="midnightblue" points="62.9186,-106.094 53.1771,-101.928 58.1946,-111.26 62.9186,-106.094"/>
</g>
<!-- Node3 -->
<g id="node5" class="node"><title>Node3</title>
<a xlink:href="classpydrv1_1_1dot3__by__len.html" target="_top" xlink:title="pydrv1.dot3_by_len">
<polygon fill="white" stroke="black" points="139.5,-120.5 139.5,-141.5 248.5,-141.5 248.5,-120.5 139.5,-120.5"/>
<text text-anchor="middle" x="194" y="-128.5" font-family="Helvetica,sans-Serif" font-size="10.00">pydrv1.dot3_by_len</text>
</a>
</g>
<!-- Node1&#45;&gt;Node3 -->
<g id="edge4" class="edge"><title>Node1&#45;&gt;Node3</title>
<path fill="none" stroke="midnightblue" d="M91.6132,-104.056C111.853,-109.382 134.943,-115.459 154.067,-120.491"/>
<polygon fill="midnightblue" stroke="midnightblue" points="92.4977,-100.67 81.9362,-101.51 90.7162,-107.439 92.4977,-100.67"/>
</g>
<!-- Node4 -->
<g id="node7" class="node"><title>Node4</title>
<a xlink:href="classpydrv32_1_1dot3__by__len.html" target="_top" xlink:title="pydrv32.dot3_by_len">
<polygon fill="white" stroke="black" points="136.5,-80.5 136.5,-101.5 251.5,-101.5 251.5,-80.5 136.5,-80.5"/>
<text text-anchor="middle" x="194" y="-88.5" font-family="Helvetica,sans-Serif" font-size="10.00">pydrv32.dot3_by_len</text>
</a>
</g>
<!-- Node1&#45;&gt;Node4 -->
<g id="edge6" class="edge"><title>Node1&#45;&gt;Node4</title>
<path fill="none" stroke="midnightblue" d="M93.7405,-91C107.43,-91 122.293,-91 136.278,-91"/>
<polygon fill="midnightblue" stroke="midnightblue" points="93.5347,-87.5001 83.5347,-91 93.5346,-94.5001 93.5347,-87.5001"/>
</g>
<!-- Node5 -->
<g id="node9" class="node"><title>Node5</title>
<a xlink:href="classpydrv512_1_1dot3__64__to__1500.html" target="_top" xlink:title="pydrv512.dot3_64_to_1500">
<polygon fill="white" stroke="black" points="120.5,-40.5 120.5,-61.5 267.5,-61.5 267.5,-40.5 120.5,-40.5"/>
<text text-anchor="middle" x="194" y="-48.5" font-family="Helvetica,sans-Serif" font-size="10.00">pydrv512.dot3_64_to_1500</text>
</a>
</g>
<!-- Node1&#45;&gt;Node5 -->
<g id="edge8" class="edge"><title>Node1&#45;&gt;Node5</title>
<path fill="none" stroke="midnightblue" d="M91.6132,-77.9439C111.853,-72.6177 134.943,-66.5413 154.067,-61.5087"/>
<polygon fill="midnightblue" stroke="midnightblue" points="90.7162,-74.5607 81.9362,-80.4905 92.4977,-81.3302 90.7162,-74.5607"/>
</g>
<!-- Node6 -->
<g id="node11" class="node"><title>Node6</title>
<a xlink:href="classpydrv8_1_1dot3__by__len.html" target="_top" xlink:title="pydrv8.dot3_by_len">
<polygon fill="white" stroke="black" points="139.5,-0.5 139.5,-21.5 248.5,-21.5 248.5,-0.5 139.5,-0.5"/>
<text text-anchor="middle" x="194" y="-8.5" font-family="Helvetica,sans-Serif" font-size="10.00">pydrv8.dot3_by_len</text>
</a>
</g>
<!-- Node1&#45;&gt;Node6 -->
<g id="edge10" class="edge"><title>Node1&#45;&gt;Node6</title>
<path fill="none" stroke="midnightblue" d="M60.7167,-73.1767C75.6872,-59.8135 97.7814,-42.0035 120,-31 127.513,-27.2792 135.81,-24.1784 144.05,-21.6179"/>
<polygon fill="midnightblue" stroke="midnightblue" points="58.1946,-70.7403 53.1771,-80.0717 62.9186,-75.9059 58.1946,-70.7403"/>
</g>
</g>
</svg>
