<?xml version="1.0" encoding="UTF-8" standalone="no"?>
<!DOCTYPE svg PUBLIC "-//W3C//DTD SVG 1.1//EN"
 "http://www.w3.org/Graphics/SVG/1.1/DTD/svg11.dtd">
<!-- Generated by graphviz version 2.26.3 (20100126.1600)
 -->
<!-- Title: Graphical Class Hierarchy Pages: 1 -->
<svg width="314pt" height="430pt"
 viewBox="0.00 0.00 314.00 430.00" xmlns="http://www.w3.org/2000/svg" xmlns:xlink="http://www.w3.org/1999/xlink">
<g id="graph1" class="graph" transform="scale(1 1) rotate(0) translate(4 426)">
<title>Graphical Class Hierarchy</title>
<polygon fill="white" stroke="white" points="-4,5 -4,-426 311,-426 311,5 -4,5"/>
<!-- Node1 -->
<g id="node1" class="node"><title>Node1</title>
<polygon fill="white" stroke="#bfbfbf" points="0.5,-200.5 0.5,-221.5 67.5,-221.5 67.5,-200.5 0.5,-200.5"/>
<text text-anchor="middle" x="34" y="-208.5" font-family="Helvetica,sans-Serif" font-size="10.00">sc_module</text>
</g>
<!-- Node2 -->
<g id="node3" class="node"><title>Node2</title>
<a xlink:href="classtb__16_1_1Checker.html" target="_top" xlink:title="tb_16::Checker">
<polygon fill="white" stroke="black" points="107.5,-400.5 107.5,-421.5 194.5,-421.5 194.5,-400.5 107.5,-400.5"/>
<text text-anchor="middle" x="151" y="-408.5" font-family="Helvetica,sans-Serif" font-size="10.00">tb_16::Checker</text>
</a>
</g>
<!-- Node1&#45;&gt;Node2 -->
<g id="edge2" class="edge"><title>Node1&#45;&gt;Node2</title>
<path fill="none" stroke="midnightblue" d="M36.7741,-231.946C42.6883,-268.74 59.8045,-345.393 104,-391 107.579,-394.694 111.949,-397.74 116.568,-400.243"/>
<polygon fill="midnightblue" stroke="midnightblue" points="40.2111,-231.263 35.2807,-221.885 33.287,-232.291 40.2111,-231.263"/>
</g>
<!-- Node3 -->
<g id="node5" class="node"><title>Node3</title>
<a xlink:href="classtb__16_1_1tb.html" target="_top" xlink:title="tb_16::tb">
<polygon fill="white" stroke="black" points="123,-360.5 123,-381.5 179,-381.5 179,-360.5 123,-360.5"/>
<text text-anchor="middle" x="151" y="-368.5" font-family="Helvetica,sans-Serif" font-size="10.00">tb_16::tb</text>
</a>
</g>
<!-- Node1&#45;&gt;Node3 -->
<g id="edge4" class="edge"><title>Node1&#45;&gt;Node3</title>
<path fill="none" stroke="midnightblue" d="M39.3077,-231.432C48.0589,-261.396 68.2107,-317.341 104,-351 109.297,-355.982 116.023,-359.824 122.719,-362.746"/>
<polygon fill="midnightblue" stroke="midnightblue" points="42.6412,-230.356 36.5915,-221.658 35.8967,-232.23 42.6412,-230.356"/>
</g>
<!-- Node5 -->
<g id="node9" class="node"><title>Node5</title>
<a xlink:href="classtb__1_1_1Checker.html" target="_top" xlink:title="tb_1::Checker">
<polygon fill="white" stroke="black" points="110.5,-320.5 110.5,-341.5 191.5,-341.5 191.5,-320.5 110.5,-320.5"/>
<text text-anchor="middle" x="151" y="-328.5" font-family="Helvetica,sans-Serif" font-size="10.00">tb_1::Checker</text>
</a>
</g>
<!-- Node1&#45;&gt;Node5 -->
<g id="edge8" class="edge"><title>Node1&#45;&gt;Node5</title>
<path fill="none" stroke="midnightblue" d="M43.4543,-230.629C55.0016,-252.792 76.4475,-288.665 104,-311 108.547,-314.686 113.873,-317.8 119.274,-320.393"/>
<polygon fill="midnightblue" stroke="midnightblue" points="46.4843,-228.864 38.8589,-221.508 40.233,-232.014 46.4843,-228.864"/>
</g>
<!-- Node6 -->
<g id="node11" class="node"><title>Node6</title>
<a xlink:href="classtb__1_1_1ClkDiv.html" target="_top" xlink:title="tb_1::ClkDiv">
<polygon fill="white" stroke="black" points="115.5,-280.5 115.5,-301.5 186.5,-301.5 186.5,-280.5 115.5,-280.5"/>
<text text-anchor="middle" x="151" y="-288.5" font-family="Helvetica,sans-Serif" font-size="10.00">tb_1::ClkDiv</text>
</a>
</g>
<!-- Node1&#45;&gt;Node6 -->
<g id="edge10" class="edge"><title>Node1&#45;&gt;Node6</title>
<path fill="none" stroke="midnightblue" d="M51.761,-228.937C65.2333,-241.838 84.6736,-259.005 104,-271 109.576,-274.461 115.855,-277.592 121.965,-280.294"/>
<polygon fill="midnightblue" stroke="midnightblue" points="54.1631,-226.391 44.5643,-221.906 49.2712,-231.398 54.1631,-226.391"/>
</g>
<!-- Node7 -->
<g id="node13" class="node"><title>Node7</title>
<a xlink:href="classtb__1_1_1tb.html" target="_top" xlink:title="tb_1::tb">
<polygon fill="white" stroke="black" points="126,-240.5 126,-261.5 176,-261.5 176,-240.5 126,-240.5"/>
<text text-anchor="middle" x="151" y="-248.5" font-family="Helvetica,sans-Serif" font-size="10.00">tb_1::tb</text>
</a>
</g>
<!-- Node1&#45;&gt;Node7 -->
<g id="edge12" class="edge"><title>Node1&#45;&gt;Node7</title>
<path fill="none" stroke="midnightblue" d="M74.5018,-224.847C91.6133,-230.697 111.001,-237.325 125.977,-242.445"/>
<polygon fill="midnightblue" stroke="midnightblue" points="75.3349,-221.433 64.7404,-221.51 73.0704,-228.056 75.3349,-221.433"/>
</g>
<!-- Node9 -->
<g id="node17" class="node"><title>Node9</title>
<a xlink:href="classtb__32_1_1Checker.html" target="_top" xlink:title="tb_32::Checker">
<polygon fill="white" stroke="black" points="107.5,-200.5 107.5,-221.5 194.5,-221.5 194.5,-200.5 107.5,-200.5"/>
<text text-anchor="middle" x="151" y="-208.5" font-family="Helvetica,sans-Serif" font-size="10.00">tb_32::Checker</text>
</a>
</g>
<!-- Node1&#45;&gt;Node9 -->
<g id="edge16" class="edge"><title>Node1&#45;&gt;Node9</title>
<path fill="none" stroke="midnightblue" d="M77.7651,-211C87.4594,-211 97.731,-211 107.418,-211"/>
<polygon fill="midnightblue" stroke="midnightblue" points="77.5275,-207.5 67.5275,-211 77.5275,-214.5 77.5275,-207.5"/>
</g>
<!-- Node10 -->
<g id="node19" class="node"><title>Node10</title>
<a xlink:href="classtb__32_1_1tb.html" target="_top" xlink:title="tb_32::tb">
<polygon fill="white" stroke="black" points="123,-160.5 123,-181.5 179,-181.5 179,-160.5 123,-160.5"/>
<text text-anchor="middle" x="151" y="-168.5" font-family="Helvetica,sans-Serif" font-size="10.00">tb_32::tb</text>
</a>
</g>
<!-- Node1&#45;&gt;Node10 -->
<g id="edge18" class="edge"><title>Node1&#45;&gt;Node10</title>
<path fill="none" stroke="midnightblue" d="M74.3827,-197.194C90.3627,-191.731 108.344,-185.583 122.869,-180.618"/>
<polygon fill="midnightblue" stroke="midnightblue" points="73.0704,-193.944 64.7404,-200.49 75.3349,-200.567 73.0704,-193.944"/>
</g>
<!-- Node12 -->
<g id="node23" class="node"><title>Node12</title>
<a xlink:href="classtb__512_1_1Checker.html" target="_top" xlink:title="tb_512::Checker">
<polygon fill="white" stroke="black" points="104.5,-120.5 104.5,-141.5 197.5,-141.5 197.5,-120.5 104.5,-120.5"/>
<text text-anchor="middle" x="151" y="-128.5" font-family="Helvetica,sans-Serif" font-size="10.00">tb_512::Checker</text>
</a>
</g>
<!-- Node1&#45;&gt;Node12 -->
<g id="edge22" class="edge"><title>Node1&#45;&gt;Node12</title>
<path fill="none" stroke="midnightblue" d="M51.761,-193.063C65.2333,-180.162 84.6736,-162.995 104,-151 109.576,-147.539 115.855,-144.408 121.965,-141.706"/>
<polygon fill="midnightblue" stroke="midnightblue" points="49.2712,-190.602 44.5643,-200.094 54.1631,-195.609 49.2712,-190.602"/>
</g>
<!-- Node13 -->
<g id="node25" class="node"><title>Node13</title>
<a xlink:href="classtb__512_1_1tb.html" target="_top" xlink:title="tb_512::tb">
<polygon fill="white" stroke="black" points="120,-80.5 120,-101.5 182,-101.5 182,-80.5 120,-80.5"/>
<text text-anchor="middle" x="151" y="-88.5" font-family="Helvetica,sans-Serif" font-size="10.00">tb_512::tb</text>
</a>
</g>
<!-- Node1&#45;&gt;Node13 -->
<g id="edge24" class="edge"><title>Node1&#45;&gt;Node13</title>
<path fill="none" stroke="midnightblue" d="M43.4543,-191.371C55.0016,-169.208 76.4475,-133.335 104,-111 108.684,-107.203 114.196,-104.012 119.766,-101.373"/>
<polygon fill="midnightblue" stroke="midnightblue" points="40.233,-189.986 38.8589,-200.492 46.4843,-193.136 40.233,-189.986"/>
</g>
<!-- Node15 -->
<g id="node29" class="node"><title>Node15</title>
<a xlink:href="classtb__8_1_1Checker.html" target="_top" xlink:title="tb_8::Checker">
<polygon fill="white" stroke="black" points="110.5,-40.5 110.5,-61.5 191.5,-61.5 191.5,-40.5 110.5,-40.5"/>
<text text-anchor="middle" x="151" y="-48.5" font-family="Helvetica,sans-Serif" font-size="10.00">tb_8::Checker</text>
</a>
</g>
<!-- Node1&#45;&gt;Node15 -->
<g id="edge28" class="edge"><title>Node1&#45;&gt;Node15</title>
<path fill="none" stroke="midnightblue" d="M39.3077,-190.568C48.0589,-160.604 68.2107,-104.659 104,-71 108.005,-67.2333 112.827,-64.118 117.835,-61.5596"/>
<polygon fill="midnightblue" stroke="midnightblue" points="35.8967,-189.77 36.5915,-200.342 42.6412,-191.644 35.8967,-189.77"/>
</g>
<!-- Node16 -->
<g id="node31" class="node"><title>Node16</title>
<a xlink:href="classtb__8_1_1tb.html" target="_top" xlink:title="tb_8::tb">
<polygon fill="white" stroke="black" points="126,-0.5 126,-21.5 176,-21.5 176,-0.5 126,-0.5"/>
<text text-anchor="middle" x="151" y="-8.5" font-family="Helvetica,sans-Serif" font-size="10.00">tb_8::tb</text>
</a>
</g>
<!-- Node1&#45;&gt;Node16 -->
<g id="edge30" class="edge"><title>Node1&#45;&gt;Node16</title>
<path fill="none" stroke="midnightblue" d="M36.7741,-190.054C42.6883,-153.26 59.8045,-76.6068 104,-31 109.924,-24.8865 118.015,-20.5456 125.814,-17.5076"/>
<polygon fill="midnightblue" stroke="midnightblue" points="33.287,-189.709 35.2807,-200.115 40.2111,-190.737 33.287,-189.709"/>
</g>
<!-- Node4 -->
<g id="node7" class="node"><title>Node4</title>
<a xlink:href="classtb__16_1_1test.html" target="_top" xlink:title="tb_16::test">
<polygon fill="white" stroke="black" points="237.5,-360.5 237.5,-381.5 302.5,-381.5 302.5,-360.5 237.5,-360.5"/>
<text text-anchor="middle" x="270" y="-368.5" font-family="Helvetica,sans-Serif" font-size="10.00">tb_16::test</text>
</a>
</g>
<!-- Node3&#45;&gt;Node4 -->
<g id="edge6" class="edge"><title>Node3&#45;&gt;Node4</title>
<path fill="none" stroke="midnightblue" d="M189.49,-371C204.94,-371 222.559,-371 237.367,-371"/>
<polygon fill="midnightblue" stroke="midnightblue" points="189.201,-367.5 179.201,-371 189.201,-374.5 189.201,-367.5"/>
</g>
<!-- Node8 -->
<g id="node15" class="node"><title>Node8</title>
<a xlink:href="classtb__1_1_1test.html" target="_top" xlink:title="tb_1::test">
<polygon fill="white" stroke="black" points="240.5,-240.5 240.5,-261.5 299.5,-261.5 299.5,-240.5 240.5,-240.5"/>
<text text-anchor="middle" x="270" y="-248.5" font-family="Helvetica,sans-Serif" font-size="10.00">tb_1::test</text>
</a>
</g>
<!-- Node7&#45;&gt;Node8 -->
<g id="edge14" class="edge"><title>Node7&#45;&gt;Node8</title>
<path fill="none" stroke="midnightblue" d="M186.418,-251C203.537,-251 223.856,-251 240.173,-251"/>
<polygon fill="midnightblue" stroke="midnightblue" points="186.237,-247.5 176.237,-251 186.237,-254.5 186.237,-247.5"/>
</g>
<!-- Node11 -->
<g id="node21" class="node"><title>Node11</title>
<a xlink:href="classtb__32_1_1test.html" target="_top" xlink:title="tb_32::test">
<polygon fill="white" stroke="black" points="237.5,-160.5 237.5,-181.5 302.5,-181.5 302.5,-160.5 237.5,-160.5"/>
<text text-anchor="middle" x="270" y="-168.5" font-family="Helvetica,sans-Serif" font-size="10.00">tb_32::test</text>
</a>
</g>
<!-- Node10&#45;&gt;Node11 -->
<g id="edge20" class="edge"><title>Node10&#45;&gt;Node11</title>
<path fill="none" stroke="midnightblue" d="M189.49,-171C204.94,-171 222.559,-171 237.367,-171"/>
<polygon fill="midnightblue" stroke="midnightblue" points="189.201,-167.5 179.201,-171 189.201,-174.5 189.201,-167.5"/>
</g>
<!-- Node14 -->
<g id="node27" class="node"><title>Node14</title>
<a xlink:href="classtb__512_1_1test.html" target="_top" xlink:title="tb_512::test">
<polygon fill="white" stroke="black" points="234.5,-80.5 234.5,-101.5 305.5,-101.5 305.5,-80.5 234.5,-80.5"/>
<text text-anchor="middle" x="270" y="-88.5" font-family="Helvetica,sans-Serif" font-size="10.00">tb_512::test</text>
</a>
</g>
<!-- Node13&#45;&gt;Node14 -->
<g id="edge26" class="edge"><title>Node13&#45;&gt;Node14</title>
<path fill="none" stroke="midnightblue" d="M192.385,-91C206.047,-91 221.118,-91 234.316,-91"/>
<polygon fill="midnightblue" stroke="midnightblue" points="192.266,-87.5001 182.266,-91 192.266,-94.5001 192.266,-87.5001"/>
</g>
<!-- Node17 -->
<g id="node33" class="node"><title>Node17</title>
<a xlink:href="classtb__8_1_1test.html" target="_top" xlink:title="tb_8::test">
<polygon fill="white" stroke="black" points="240.5,-0.5 240.5,-21.5 299.5,-21.5 299.5,-0.5 240.5,-0.5"/>
<text text-anchor="middle" x="270" y="-8.5" font-family="Helvetica,sans-Serif" font-size="10.00">tb_8::test</text>
</a>
</g>
<!-- Node16&#45;&gt;Node17 -->
<g id="edge32" class="edge"><title>Node16&#45;&gt;Node17</title>
<path fill="none" stroke="midnightblue" d="M186.418,-11C203.537,-11 223.856,-11 240.173,-11"/>
<polygon fill="midnightblue" stroke="midnightblue" points="186.237,-7.5001 176.237,-11 186.237,-14.5001 186.237,-7.5001"/>
</g>
</g>
</svg>
