<?xml version="1.0" encoding="UTF-8" standalone="no"?>
<!DOCTYPE svg PUBLIC "-//W3C//DTD SVG 1.1//EN"
 "http://www.w3.org/Graphics/SVG/1.1/DTD/svg11.dtd">
<!-- Generated by graphviz version 2.26.3 (20100126.1600)
 -->
<!-- Title: tb_1/tb.cxx Pages: 1 -->
<svg width="502pt" height="146pt"
 viewBox="0.00 0.00 502.00 146.00" xmlns="http://www.w3.org/2000/svg" xmlns:xlink="http://www.w3.org/1999/xlink">
<g id="graph1" class="graph" transform="scale(1 1) rotate(0) translate(4 142)">
<title>tb_1/tb.cxx</title>
<polygon fill="white" stroke="white" points="-4,5 -4,-142 499,-142 499,5 -4,5"/>
<!-- Node1 -->
<g id="node1" class="node"><title>Node1</title>
<polygon fill="#bfbfbf" stroke="black" points="166,-116.5 166,-137.5 232,-137.5 232,-116.5 166,-116.5"/>
<text text-anchor="middle" x="199" y="-124.5" font-family="Helvetica,sans-Serif" font-size="10.00">tb_1/tb.cxx</text>
</g>
<!-- Node2 -->
<g id="node3" class="node"><title>Node2</title>
<polygon fill="white" stroke="#bfbfbf" points="142.5,-58.5 142.5,-79.5 195.5,-79.5 195.5,-58.5 142.5,-58.5"/>
<text text-anchor="middle" x="169" y="-66.5" font-family="Helvetica,sans-Serif" font-size="10.00">iomanip</text>
</g>
<!-- Node1&#45;&gt;Node2 -->
<g id="edge2" class="edge"><title>Node1&#45;&gt;Node2</title>
<path fill="none" stroke="midnightblue" d="M193.498,-116.362C189.48,-108.595 183.919,-97.8426 179.11,-88.5458"/>
<polygon fill="midnightblue" stroke="midnightblue" points="182.171,-86.8448 174.468,-79.5707 175.953,-90.0608 182.171,-86.8448"/>
</g>
<!-- Node3 -->
<g id="node5" class="node"><title>Node3</title>
<a xlink:href="tb__1_2tb_8h.html" target="_top" xlink:title="tb.h">
<polygon fill="white" stroke="black" points="212.5,-58.5 212.5,-79.5 245.5,-79.5 245.5,-58.5 212.5,-58.5"/>
<text text-anchor="middle" x="229" y="-66.5" font-family="Helvetica,sans-Serif" font-size="10.00">tb.h</text>
</a>
</g>
<!-- Node1&#45;&gt;Node3 -->
<g id="edge4" class="edge"><title>Node1&#45;&gt;Node3</title>
<path fill="none" stroke="midnightblue" d="M204.502,-116.362C208.52,-108.595 214.081,-97.8426 218.89,-88.5458"/>
<polygon fill="midnightblue" stroke="midnightblue" points="222.047,-90.0608 223.532,-79.5707 215.829,-86.8448 222.047,-90.0608"/>
</g>
<!-- Node4 -->
<g id="node7" class="node"><title>Node4</title>
<polygon fill="white" stroke="#bfbfbf" points="-0.5,-0.5 -0.5,-21.5 54.5,-21.5 54.5,-0.5 -0.5,-0.5"/>
<text text-anchor="middle" x="27" y="-8.5" font-family="Helvetica,sans-Serif" font-size="10.00">systemc</text>
</g>
<!-- Node3&#45;&gt;Node4 -->
<g id="edge6" class="edge"><title>Node3&#45;&gt;Node4</title>
<path fill="none" stroke="midnightblue" d="M212.477,-61.2751C209.679,-60.0985 206.779,-58.9589 204,-58 145.845,-37.9347 127.098,-39.262 64.8172,-22.4017"/>
<polygon fill="midnightblue" stroke="midnightblue" points="65.4412,-18.9431 54.8703,-19.656 63.5785,-25.6908 65.4412,-18.9431"/>
</g>
<!-- Node5 -->
<g id="node9" class="node"><title>Node5</title>
<polygon fill="white" stroke="#bfbfbf" points="72,-0.5 72,-21.5 140,-21.5 140,-0.5 72,-0.5"/>
<text text-anchor="middle" x="106" y="-8.5" font-family="Helvetica,sans-Serif" font-size="10.00">SyscMsg.h</text>
</g>
<!-- Node3&#45;&gt;Node5 -->
<g id="edge8" class="edge"><title>Node3&#45;&gt;Node5</title>
<path fill="none" stroke="midnightblue" d="M212.412,-61.1779C193.393,-52.2096 161.774,-37.2999 137.933,-26.0581"/>
<polygon fill="midnightblue" stroke="midnightblue" points="139.113,-22.7449 128.576,-21.6455 136.128,-29.0763 139.113,-22.7449"/>
</g>
<!-- Node6 -->
<g id="node11" class="node"><title>Node6</title>
<polygon fill="white" stroke="#bfbfbf" points="158,-0.5 158,-21.5 220,-21.5 220,-0.5 158,-0.5"/>
<text text-anchor="middle" x="189" y="-8.5" font-family="Helvetica,sans-Serif" font-size="10.00">SyscClk.h</text>
</g>
<!-- Node3&#45;&gt;Node6 -->
<g id="edge10" class="edge"><title>Node3&#45;&gt;Node6</title>
<path fill="none" stroke="midnightblue" d="M221.663,-58.3619C216.194,-50.4313 208.578,-39.3885 202.076,-29.9606"/>
<polygon fill="midnightblue" stroke="midnightblue" points="204.849,-27.8157 196.29,-21.5707 199.086,-31.7899 204.849,-27.8157"/>
</g>
<!-- Node7 -->
<g id="node13" class="node"><title>Node7</title>
<polygon fill="white" stroke="#bfbfbf" points="238,-0.5 238,-21.5 302,-21.5 302,-0.5 238,-0.5"/>
<text text-anchor="middle" x="270" y="-8.5" font-family="Helvetica,sans-Serif" font-size="10.00">SyscDrv.h</text>
</g>
<!-- Node3&#45;&gt;Node7 -->
<g id="edge12" class="edge"><title>Node3&#45;&gt;Node7</title>
<path fill="none" stroke="midnightblue" d="M236.52,-58.3619C242.126,-50.4313 249.932,-39.3885 256.597,-29.9606"/>
<polygon fill="midnightblue" stroke="midnightblue" points="259.613,-31.7568 262.528,-21.5707 253.897,-27.7161 259.613,-31.7568"/>
</g>
<!-- Node8 -->
<g id="node15" class="node"><title>Node8</title>
<polygon fill="white" stroke="#bfbfbf" points="320,-0.5 320,-21.5 398,-21.5 398,-0.5 320,-0.5"/>
<text text-anchor="middle" x="359" y="-8.5" font-family="Helvetica,sans-Serif" font-size="10.00">SyscFCBus.h</text>
</g>
<!-- Node3&#45;&gt;Node8 -->
<g id="edge14" class="edge"><title>Node3&#45;&gt;Node8</title>
<path fill="none" stroke="midnightblue" d="M245.729,-61.5363C265.917,-52.5292 300.338,-37.1725 325.949,-25.7457"/>
<polygon fill="midnightblue" stroke="midnightblue" points="327.58,-28.8509 335.286,-21.5801 324.728,-22.4583 327.58,-28.8509"/>
</g>
<!-- Node9 -->
<g id="node17" class="node"><title>Node9</title>
<polygon fill="white" stroke="#bfbfbf" points="416,-0.5 416,-21.5 494,-21.5 494,-0.5 416,-0.5"/>
<text text-anchor="middle" x="455" y="-8.5" font-family="Helvetica,sans-Serif" font-size="10.00">Vuut_1_top.h</text>
</g>
<!-- Node3&#45;&gt;Node9 -->
<g id="edge16" class="edge"><title>Node3&#45;&gt;Node9</title>
<path fill="none" stroke="midnightblue" d="M245.618,-64.7351C278.971,-56.1756 355.202,-36.612 405.889,-23.6038"/>
<polygon fill="midnightblue" stroke="midnightblue" points="406.849,-26.9708 415.665,-21.0948 405.109,-20.1906 406.849,-26.9708"/>
</g>
</g>
</svg>
