<?xml version="1.0" encoding="UTF-8" standalone="no"?>
<!DOCTYPE svg PUBLIC "-//W3C//DTD SVG 1.1//EN"
 "http://www.w3.org/Graphics/SVG/1.1/DTD/svg11.dtd">
<!-- Generated by graphviz version 2.26.3 (20100126.1600)
 -->
<!-- Title: tb_512/tb.cxx Pages: 1 -->
<svg width="514pt" height="146pt"
 viewBox="0.00 0.00 514.00 146.00" xmlns="http://www.w3.org/2000/svg" xmlns:xlink="http://www.w3.org/1999/xlink">
<g id="graph1" class="graph" transform="scale(1 1) rotate(0) translate(4 142)">
<title>tb_512/tb.cxx</title>
<polygon fill="white" stroke="white" points="-4,5 -4,-142 511,-142 511,5 -4,5"/>
<!-- Node1 -->
<g id="node1" class="node"><title>Node1</title>
<polygon fill="#bfbfbf" stroke="black" points="161,-116.5 161,-137.5 239,-137.5 239,-116.5 161,-116.5"/>
<text text-anchor="middle" x="200" y="-124.5" font-family="Helvetica,sans-Serif" font-size="10.00">tb_512/tb.cxx</text>
</g>
<!-- Node2 -->
<g id="node3" class="node"><title>Node2</title>
<polygon fill="white" stroke="#bfbfbf" points="143.5,-58.5 143.5,-79.5 196.5,-79.5 196.5,-58.5 143.5,-58.5"/>
<text text-anchor="middle" x="170" y="-66.5" font-family="Helvetica,sans-Serif" font-size="10.00">iomanip</text>
</g>
<!-- Node1&#45;&gt;Node2 -->
<g id="edge2" class="edge"><title>Node1&#45;&gt;Node2</title>
<path fill="none" stroke="midnightblue" d="M194.498,-116.362C190.48,-108.595 184.919,-97.8426 180.11,-88.5458"/>
<polygon fill="midnightblue" stroke="midnightblue" points="183.171,-86.8448 175.468,-79.5707 176.953,-90.0608 183.171,-86.8448"/>
</g>
<!-- Node3 -->
<g id="node5" class="node"><title>Node3</title>
<a xlink:href="tb__512_2tb_8h.html" target="_top" xlink:title="tb.h">
<polygon fill="white" stroke="black" points="213.5,-58.5 213.5,-79.5 246.5,-79.5 246.5,-58.5 213.5,-58.5"/>
<text text-anchor="middle" x="230" y="-66.5" font-family="Helvetica,sans-Serif" font-size="10.00">tb.h</text>
</a>
</g>
<!-- Node1&#45;&gt;Node3 -->
<g id="edge4" class="edge"><title>Node1&#45;&gt;Node3</title>
<path fill="none" stroke="midnightblue" d="M205.502,-116.362C209.52,-108.595 215.081,-97.8426 219.89,-88.5458"/>
<polygon fill="midnightblue" stroke="midnightblue" points="223.047,-90.0608 224.532,-79.5707 216.829,-86.8448 223.047,-90.0608"/>
</g>
<!-- Node4 -->
<g id="node7" class="node"><title>Node4</title>
<polygon fill="white" stroke="#bfbfbf" points="-0.5,-0.5 -0.5,-21.5 54.5,-21.5 54.5,-0.5 -0.5,-0.5"/>
<text text-anchor="middle" x="27" y="-8.5" font-family="Helvetica,sans-Serif" font-size="10.00">systemc</text>
</g>
<!-- Node3&#45;&gt;Node4 -->
<g id="edge6" class="edge"><title>Node3&#45;&gt;Node4</title>
<path fill="none" stroke="midnightblue" d="M213.478,-61.2711C210.68,-60.095 207.78,-58.9566 205,-58 146.441,-37.8506 127.543,-39.311 64.8771,-22.4135"/>
<polygon fill="midnightblue" stroke="midnightblue" points="65.4392,-18.9382 54.869,-19.6607 63.5827,-25.6875 65.4392,-18.9382"/>
</g>
<!-- Node5 -->
<g id="node9" class="node"><title>Node5</title>
<polygon fill="white" stroke="#bfbfbf" points="72,-0.5 72,-21.5 140,-21.5 140,-0.5 72,-0.5"/>
<text text-anchor="middle" x="106" y="-8.5" font-family="Helvetica,sans-Serif" font-size="10.00">SyscMsg.h</text>
</g>
<!-- Node3&#45;&gt;Node5 -->
<g id="edge8" class="edge"><title>Node3&#45;&gt;Node5</title>
<path fill="none" stroke="midnightblue" d="M213.277,-61.1779C194.018,-52.1697 161.944,-37.1672 137.873,-25.9084"/>
<polygon fill="midnightblue" stroke="midnightblue" points="139.3,-22.7121 128.759,-21.6455 136.334,-29.0527 139.3,-22.7121"/>
</g>
<!-- Node6 -->
<g id="node11" class="node"><title>Node6</title>
<polygon fill="white" stroke="#bfbfbf" points="158,-0.5 158,-21.5 222,-21.5 222,-0.5 158,-0.5"/>
<text text-anchor="middle" x="190" y="-8.5" font-family="Helvetica,sans-Serif" font-size="10.00">SyscDrv.h</text>
</g>
<!-- Node3&#45;&gt;Node6 -->
<g id="edge10" class="edge"><title>Node3&#45;&gt;Node6</title>
<path fill="none" stroke="midnightblue" d="M222.663,-58.3619C217.194,-50.4313 209.578,-39.3885 203.076,-29.9606"/>
<polygon fill="midnightblue" stroke="midnightblue" points="205.849,-27.8157 197.29,-21.5707 200.086,-31.7899 205.849,-27.8157"/>
</g>
<!-- Node7 -->
<g id="node13" class="node"><title>Node7</title>
<polygon fill="white" stroke="#bfbfbf" points="240,-0.5 240,-21.5 302,-21.5 302,-0.5 240,-0.5"/>
<text text-anchor="middle" x="271" y="-8.5" font-family="Helvetica,sans-Serif" font-size="10.00">SyscClk.h</text>
</g>
<!-- Node3&#45;&gt;Node7 -->
<g id="edge12" class="edge"><title>Node3&#45;&gt;Node7</title>
<path fill="none" stroke="midnightblue" d="M237.52,-58.3619C243.126,-50.4313 250.932,-39.3885 257.597,-29.9606"/>
<polygon fill="midnightblue" stroke="midnightblue" points="260.613,-31.7568 263.528,-21.5707 254.897,-27.7161 260.613,-31.7568"/>
</g>
<!-- Node8 -->
<g id="node15" class="node"><title>Node8</title>
<polygon fill="white" stroke="#bfbfbf" points="320,-0.5 320,-21.5 398,-21.5 398,-0.5 320,-0.5"/>
<text text-anchor="middle" x="359" y="-8.5" font-family="Helvetica,sans-Serif" font-size="10.00">SyscFCBus.h</text>
</g>
<!-- Node3&#45;&gt;Node8 -->
<g id="edge14" class="edge"><title>Node3&#45;&gt;Node8</title>
<path fill="none" stroke="midnightblue" d="M246.6,-61.5363C266.633,-52.5292 300.789,-37.1725 326.204,-25.7457"/>
<polygon fill="midnightblue" stroke="midnightblue" points="327.783,-28.8731 335.468,-21.5801 324.913,-22.4887 327.783,-28.8731"/>
</g>
<!-- Node9 -->
<g id="node17" class="node"><title>Node9</title>
<polygon fill="white" stroke="#bfbfbf" points="416,-0.5 416,-21.5 506,-21.5 506,-0.5 416,-0.5"/>
<text text-anchor="middle" x="461" y="-8.5" font-family="Helvetica,sans-Serif" font-size="10.00">Vuut_512_top.h</text>
</g>
<!-- Node3&#45;&gt;Node9 -->
<g id="edge16" class="edge"><title>Node3&#45;&gt;Node9</title>
<path fill="none" stroke="midnightblue" d="M246.613,-64.8288C280.142,-56.4102 357.132,-37.0794 409.123,-24.0255"/>
<polygon fill="midnightblue" stroke="midnightblue" points="409.999,-27.4143 418.845,-21.5843 408.294,-20.625 409.999,-27.4143"/>
</g>
</g>
</svg>
