<?xml version="1.0" encoding="UTF-8" standalone="no"?>
<!DOCTYPE svg PUBLIC "-//W3C//DTD SVG 1.1//EN"
 "http://www.w3.org/Graphics/SVG/1.1/DTD/svg11.dtd">
<!-- Generated by graphviz version 2.26.3 (20100126.1600)
 -->
<!-- Title: tb_16/tb.h Pages: 1 -->
<svg width="508pt" height="88pt"
 viewBox="0.00 0.00 508.00 88.00" xmlns="http://www.w3.org/2000/svg" xmlns:xlink="http://www.w3.org/1999/xlink">
<g id="graph1" class="graph" transform="scale(1 1) rotate(0) translate(4 84)">
<title>tb_16/tb.h</title>
<polygon fill="white" stroke="white" points="-4,5 -4,-84 505,-84 505,5 -4,5"/>
<!-- Node1 -->
<g id="node1" class="node"><title>Node1</title>
<polygon fill="#bfbfbf" stroke="black" points="199,-58.5 199,-79.5 261,-79.5 261,-58.5 199,-58.5"/>
<text text-anchor="middle" x="230" y="-66.5" font-family="Helvetica,sans-Serif" font-size="10.00">tb_16/tb.h</text>
</g>
<!-- Node2 -->
<g id="node3" class="node"><title>Node2</title>
<polygon fill="white" stroke="#bfbfbf" points="-0.5,-0.5 -0.5,-21.5 54.5,-21.5 54.5,-0.5 -0.5,-0.5"/>
<text text-anchor="middle" x="27" y="-8.5" font-family="Helvetica,sans-Serif" font-size="10.00">systemc</text>
</g>
<!-- Node1&#45;&gt;Node2 -->
<g id="edge2" class="edge"><title>Node1&#45;&gt;Node2</title>
<path fill="none" stroke="midnightblue" d="M198.854,-60.4569C167.235,-51.735 116.626,-37.6418 64.6136,-22.4392"/>
<polygon fill="midnightblue" stroke="midnightblue" points="65.4704,-19.0431 54.8897,-19.5886 63.5012,-25.7604 65.4704,-19.0431"/>
</g>
<!-- Node3 -->
<g id="node5" class="node"><title>Node3</title>
<polygon fill="white" stroke="#bfbfbf" points="72,-0.5 72,-21.5 140,-21.5 140,-0.5 72,-0.5"/>
<text text-anchor="middle" x="106" y="-8.5" font-family="Helvetica,sans-Serif" font-size="10.00">SyscMsg.h</text>
</g>
<!-- Node1&#45;&gt;Node3 -->
<g id="edge4" class="edge"><title>Node1&#45;&gt;Node3</title>
<path fill="none" stroke="midnightblue" d="M207.545,-58.4966C188.09,-49.397 159.72,-36.1273 137.909,-25.9253"/>
<polygon fill="midnightblue" stroke="midnightblue" points="139.248,-22.6878 128.707,-21.6212 136.283,-29.0285 139.248,-22.6878"/>
</g>
<!-- Node4 -->
<g id="node7" class="node"><title>Node4</title>
<polygon fill="white" stroke="#bfbfbf" points="158,-0.5 158,-21.5 222,-21.5 222,-0.5 158,-0.5"/>
<text text-anchor="middle" x="190" y="-8.5" font-family="Helvetica,sans-Serif" font-size="10.00">SyscDrv.h</text>
</g>
<!-- Node1&#45;&gt;Node4 -->
<g id="edge6" class="edge"><title>Node1&#45;&gt;Node4</title>
<path fill="none" stroke="midnightblue" d="M222.663,-58.3619C217.194,-50.4313 209.578,-39.3885 203.076,-29.9606"/>
<polygon fill="midnightblue" stroke="midnightblue" points="205.849,-27.8157 197.29,-21.5707 200.086,-31.7899 205.849,-27.8157"/>
</g>
<!-- Node5 -->
<g id="node9" class="node"><title>Node5</title>
<polygon fill="white" stroke="#bfbfbf" points="240,-0.5 240,-21.5 302,-21.5 302,-0.5 240,-0.5"/>
<text text-anchor="middle" x="271" y="-8.5" font-family="Helvetica,sans-Serif" font-size="10.00">SyscClk.h</text>
</g>
<!-- Node1&#45;&gt;Node5 -->
<g id="edge8" class="edge"><title>Node1&#45;&gt;Node5</title>
<path fill="none" stroke="midnightblue" d="M237.52,-58.3619C243.126,-50.4313 250.932,-39.3885 257.597,-29.9606"/>
<polygon fill="midnightblue" stroke="midnightblue" points="260.613,-31.7568 263.528,-21.5707 254.897,-27.7161 260.613,-31.7568"/>
</g>
<!-- Node6 -->
<g id="node11" class="node"><title>Node6</title>
<polygon fill="white" stroke="#bfbfbf" points="320,-0.5 320,-21.5 398,-21.5 398,-0.5 320,-0.5"/>
<text text-anchor="middle" x="359" y="-8.5" font-family="Helvetica,sans-Serif" font-size="10.00">SyscFCBus.h</text>
</g>
<!-- Node1&#45;&gt;Node6 -->
<g id="edge10" class="edge"><title>Node1&#45;&gt;Node6</title>
<path fill="none" stroke="midnightblue" d="M253.361,-58.4966C273.691,-49.3562 303.378,-36.0082 326.109,-25.7883"/>
<polygon fill="midnightblue" stroke="midnightblue" points="327.692,-28.9142 335.377,-21.6212 324.821,-22.5298 327.692,-28.9142"/>
</g>
<!-- Node7 -->
<g id="node13" class="node"><title>Node7</title>
<polygon fill="white" stroke="#bfbfbf" points="416,-0.5 416,-21.5 500,-21.5 500,-0.5 416,-0.5"/>
<text text-anchor="middle" x="458" y="-8.5" font-family="Helvetica,sans-Serif" font-size="10.00">Vuut_16_top.h</text>
</g>
<!-- Node1&#45;&gt;Node7 -->
<g id="edge12" class="edge"><title>Node1&#45;&gt;Node7</title>
<path fill="none" stroke="midnightblue" d="M261.224,-61.057C298.641,-51.5386 361.87,-35.4541 406.543,-24.09"/>
<polygon fill="midnightblue" stroke="midnightblue" points="407.512,-27.4549 416.341,-21.5975 405.787,-20.671 407.512,-27.4549"/>
</g>
</g>
</svg>
