<?xml version="1.0" encoding="UTF-8" standalone="no"?>
<!DOCTYPE svg PUBLIC "-//W3C//DTD SVG 1.1//EN"
 "http://www.w3.org/Graphics/SVG/1.1/DTD/svg11.dtd">
<!-- Generated by graphviz version 2.26.3 (20100126.1600)
 -->
<!-- Title: tb_8/tb.h Pages: 1 -->
<svg width="502pt" height="88pt"
 viewBox="0.00 0.00 502.00 88.00" xmlns="http://www.w3.org/2000/svg" xmlns:xlink="http://www.w3.org/1999/xlink">
<g id="graph1" class="graph" transform="scale(1 1) rotate(0) translate(4 84)">
<title>tb_8/tb.h</title>
<polygon fill="white" stroke="white" points="-4,5 -4,-84 499,-84 499,5 -4,5"/>
<!-- Node1 -->
<g id="node1" class="node"><title>Node1</title>
<polygon fill="#bfbfbf" stroke="black" points="201,-58.5 201,-79.5 257,-79.5 257,-58.5 201,-58.5"/>
<text text-anchor="middle" x="229" y="-66.5" font-family="Helvetica,sans-Serif" font-size="10.00">tb_8/tb.h</text>
</g>
<!-- Node2 -->
<g id="node3" class="node"><title>Node2</title>
<polygon fill="white" stroke="#bfbfbf" points="-0.5,-0.5 -0.5,-21.5 54.5,-21.5 54.5,-0.5 -0.5,-0.5"/>
<text text-anchor="middle" x="27" y="-8.5" font-family="Helvetica,sans-Serif" font-size="10.00">systemc</text>
</g>
<!-- Node1&#45;&gt;Node2 -->
<g id="edge2" class="edge"><title>Node1&#45;&gt;Node2</title>
<path fill="none" stroke="midnightblue" d="M200.752,-61.1934C169.616,-52.5468 117.803,-38.0361 64.7973,-22.4967"/>
<polygon fill="midnightblue" stroke="midnightblue" points="65.4721,-19.047 54.8909,-19.5843 63.4977,-25.7628 65.4721,-19.047"/>
</g>
<!-- Node3 -->
<g id="node5" class="node"><title>Node3</title>
<polygon fill="white" stroke="#bfbfbf" points="72,-0.5 72,-21.5 140,-21.5 140,-0.5 72,-0.5"/>
<text text-anchor="middle" x="106" y="-8.5" font-family="Helvetica,sans-Serif" font-size="10.00">SyscMsg.h</text>
</g>
<!-- Node1&#45;&gt;Node3 -->
<g id="edge4" class="edge"><title>Node1&#45;&gt;Node3</title>
<path fill="none" stroke="midnightblue" d="M206.726,-58.4966C187.428,-49.397 159.287,-36.1273 137.652,-25.9253"/>
<polygon fill="midnightblue" stroke="midnightblue" points="139.062,-22.7206 128.524,-21.6212 136.076,-29.052 139.062,-22.7206"/>
</g>
<!-- Node4 -->
<g id="node7" class="node"><title>Node4</title>
<polygon fill="white" stroke="#bfbfbf" points="158,-0.5 158,-21.5 220,-21.5 220,-0.5 158,-0.5"/>
<text text-anchor="middle" x="189" y="-8.5" font-family="Helvetica,sans-Serif" font-size="10.00">SyscClk.h</text>
</g>
<!-- Node1&#45;&gt;Node4 -->
<g id="edge6" class="edge"><title>Node1&#45;&gt;Node4</title>
<path fill="none" stroke="midnightblue" d="M221.663,-58.3619C216.194,-50.4313 208.578,-39.3885 202.076,-29.9606"/>
<polygon fill="midnightblue" stroke="midnightblue" points="204.849,-27.8157 196.29,-21.5707 199.086,-31.7899 204.849,-27.8157"/>
</g>
<!-- Node5 -->
<g id="node9" class="node"><title>Node5</title>
<polygon fill="white" stroke="#bfbfbf" points="238,-0.5 238,-21.5 302,-21.5 302,-0.5 238,-0.5"/>
<text text-anchor="middle" x="270" y="-8.5" font-family="Helvetica,sans-Serif" font-size="10.00">SyscDrv.h</text>
</g>
<!-- Node1&#45;&gt;Node5 -->
<g id="edge8" class="edge"><title>Node1&#45;&gt;Node5</title>
<path fill="none" stroke="midnightblue" d="M236.52,-58.3619C242.126,-50.4313 249.932,-39.3885 256.597,-29.9606"/>
<polygon fill="midnightblue" stroke="midnightblue" points="259.613,-31.7568 262.528,-21.5707 253.897,-27.7161 259.613,-31.7568"/>
</g>
<!-- Node6 -->
<g id="node11" class="node"><title>Node6</title>
<polygon fill="white" stroke="#bfbfbf" points="320,-0.5 320,-21.5 398,-21.5 398,-0.5 320,-0.5"/>
<text text-anchor="middle" x="359" y="-8.5" font-family="Helvetica,sans-Serif" font-size="10.00">SyscFCBus.h</text>
</g>
<!-- Node1&#45;&gt;Node6 -->
<g id="edge10" class="edge"><title>Node1&#45;&gt;Node6</title>
<path fill="none" stroke="midnightblue" d="M252.542,-58.4966C273.029,-49.3562 302.947,-36.0082 325.854,-25.7883"/>
<polygon fill="midnightblue" stroke="midnightblue" points="327.488,-28.892 335.194,-21.6212 324.635,-22.4994 327.488,-28.892"/>
</g>
<!-- Node7 -->
<g id="node13" class="node"><title>Node7</title>
<polygon fill="white" stroke="#bfbfbf" points="416,-0.5 416,-21.5 494,-21.5 494,-0.5 416,-0.5"/>
<text text-anchor="middle" x="455" y="-8.5" font-family="Helvetica,sans-Serif" font-size="10.00">Vuut_8_top.h</text>
</g>
<!-- Node1&#45;&gt;Node7 -->
<g id="edge12" class="edge"><title>Node1&#45;&gt;Node7</title>
<path fill="none" stroke="midnightblue" d="M257.166,-61.7715C294.348,-52.2292 360.409,-35.2754 405.896,-23.602"/>
<polygon fill="midnightblue" stroke="midnightblue" points="407.025,-26.9256 415.841,-21.0495 405.285,-20.1453 407.025,-26.9256"/>
</g>
</g>
</svg>
