<?xml version="1.0" encoding="UTF-8" standalone="no"?>
<!DOCTYPE svg PUBLIC "-//W3C//DTD SVG 1.1//EN"
 "http://www.w3.org/Graphics/SVG/1.1/DTD/svg11.dtd">
<!-- Generated by graphviz version 2.26.3 (20100126.1600)
 -->
<!-- Title: tb_8/tb.h Pages: 1 -->
<svg width="1388pt" height="146pt"
 viewBox="0.00 0.00 1388.00 146.00" xmlns="http://www.w3.org/2000/svg" xmlns:xlink="http://www.w3.org/1999/xlink">
<g id="graph1" class="graph" transform="scale(1 1) rotate(0) translate(4 142)">
<title>tb_8/tb.h</title>
<polygon fill="white" stroke="white" points="-4,5 -4,-142 1385,-142 1385,5 -4,5"/>
<!-- Node1 -->
<g id="node1" class="node"><title>Node1</title>
<polygon fill="#bfbfbf" stroke="black" points="799,-116.5 799,-137.5 855,-137.5 855,-116.5 799,-116.5"/>
<text text-anchor="middle" x="827" y="-124.5" font-family="Helvetica,sans-Serif" font-size="10.00">tb_8/tb.h</text>
</g>
<!-- Node2 -->
<g id="node3" class="node"><title>Node2</title>
<a xlink:href="tb__1_2test__0_2test_8h.html" target="_top" xlink:title="tb_1/test_0/test.h">
<polygon fill="white" stroke="black" points="150,-58.5 150,-79.5 248,-79.5 248,-58.5 150,-58.5"/>
<text text-anchor="middle" x="199" y="-66.5" font-family="Helvetica,sans-Serif" font-size="10.00">tb_1/test_0/test.h</text>
</a>
</g>
<!-- Node1&#45;&gt;Node2 -->
<g id="edge2" class="edge"><title>Node1&#45;&gt;Node2</title>
<path fill="none" stroke="midnightblue" d="M788.613,-123.455C679.83,-113.408 369.562,-84.7525 248.361,-73.5588"/>
<polygon fill="midnightblue" stroke="midnightblue" points="788.517,-126.961 798.796,-124.395 789.16,-119.99 788.517,-126.961"/>
</g>
<!-- Node5 -->
<g id="node9" class="node"><title>Node5</title>
<a xlink:href="tb__16_2test__0_2test_8h.html" target="_top" xlink:title="tb_16/test_0/test.h">
<polygon fill="white" stroke="black" points="426,-58.5 426,-79.5 530,-79.5 530,-58.5 426,-58.5"/>
<text text-anchor="middle" x="478" y="-66.5" font-family="Helvetica,sans-Serif" font-size="10.00">tb_16/test_0/test.h</text>
</a>
</g>
<!-- Node1&#45;&gt;Node5 -->
<g id="edge8" class="edge"><title>Node1&#45;&gt;Node5</title>
<path fill="none" stroke="midnightblue" d="M788.861,-120.662C726.151,-110.24 601.161,-89.468 530.262,-77.6853"/>
<polygon fill="midnightblue" stroke="midnightblue" points="788.297,-124.116 798.735,-122.303 789.445,-117.211 788.297,-124.116"/>
</g>
<!-- Node8 -->
<g id="node15" class="node"><title>Node8</title>
<a xlink:href="tb__32_2test__0_2test_8h.html" target="_top" xlink:title="tb_32/test_0/test.h">
<polygon fill="white" stroke="black" points="708,-58.5 708,-79.5 812,-79.5 812,-58.5 708,-58.5"/>
<text text-anchor="middle" x="760" y="-66.5" font-family="Helvetica,sans-Serif" font-size="10.00">tb_32/test_0/test.h</text>
</a>
</g>
<!-- Node1&#45;&gt;Node8 -->
<g id="edge14" class="edge"><title>Node1&#45;&gt;Node8</title>
<path fill="none" stroke="midnightblue" d="M807.005,-109.691C795.694,-99.8996 781.917,-87.973 772.211,-79.5707"/>
<polygon fill="midnightblue" stroke="midnightblue" points="804.86,-112.463 814.711,-116.362 809.441,-107.171 804.86,-112.463"/>
</g>
<!-- Node11 -->
<g id="node21" class="node"><title>Node11</title>
<a xlink:href="tb__512_2test__0_2test_8h.html" target="_top" xlink:title="tb_512/test_0/test.h">
<polygon fill="white" stroke="black" points="839,-58.5 839,-79.5 949,-79.5 949,-58.5 839,-58.5"/>
<text text-anchor="middle" x="894" y="-66.5" font-family="Helvetica,sans-Serif" font-size="10.00">tb_512/test_0/test.h</text>
</a>
</g>
<!-- Node1&#45;&gt;Node11 -->
<g id="edge20" class="edge"><title>Node1&#45;&gt;Node11</title>
<path fill="none" stroke="midnightblue" d="M846.995,-109.691C858.306,-99.8996 872.083,-87.973 881.789,-79.5707"/>
<polygon fill="midnightblue" stroke="midnightblue" points="844.559,-107.171 839.289,-116.362 849.14,-112.463 844.559,-107.171"/>
</g>
<!-- Node14 -->
<g id="node27" class="node"><title>Node14</title>
<a xlink:href="tb__8_2tb_8cxx.html" target="_top" xlink:title="tb_8/tb.cxx">
<polygon fill="white" stroke="black" points="967,-58.5 967,-79.5 1033,-79.5 1033,-58.5 967,-58.5"/>
<text text-anchor="middle" x="1000" y="-66.5" font-family="Helvetica,sans-Serif" font-size="10.00">tb_8/tb.cxx</text>
</a>
</g>
<!-- Node1&#45;&gt;Node14 -->
<g id="edge26" class="edge"><title>Node1&#45;&gt;Node14</title>
<path fill="none" stroke="midnightblue" d="M864.802,-114.326C895.888,-103.904 939.421,-89.3096 968.609,-79.5241"/>
<polygon fill="midnightblue" stroke="midnightblue" points="863.549,-111.055 855.18,-117.552 865.774,-117.692 863.549,-111.055"/>
</g>
<!-- Node15 -->
<g id="node29" class="node"><title>Node15</title>
<a xlink:href="tb__8_2test__0_2test_8h.html" target="_top" xlink:title="tb_8/test_0/test.h">
<polygon fill="white" stroke="black" points="1143,-58.5 1143,-79.5 1241,-79.5 1241,-58.5 1143,-58.5"/>
<text text-anchor="middle" x="1192" y="-66.5" font-family="Helvetica,sans-Serif" font-size="10.00">tb_8/test_0/test.h</text>
</a>
</g>
<!-- Node1&#45;&gt;Node15 -->
<g id="edge28" class="edge"><title>Node1&#45;&gt;Node15</title>
<path fill="none" stroke="midnightblue" d="M865.095,-120.947C931.696,-110.363 1069.21,-88.5119 1142.87,-76.8066"/>
<polygon fill="midnightblue" stroke="midnightblue" points="864.362,-117.519 855.035,-122.545 865.46,-124.432 864.362,-117.519"/>
</g>
<!-- Node3 -->
<g id="node5" class="node"><title>Node3</title>
<a xlink:href="tb__1_2test__0_2sc__main_8cxx.html" target="_top" xlink:title="tb_1/test_0/sc_main.cxx">
<polygon fill="white" stroke="black" points="-0.5,-0.5 -0.5,-21.5 128.5,-21.5 128.5,-0.5 -0.5,-0.5"/>
<text text-anchor="middle" x="64" y="-8.5" font-family="Helvetica,sans-Serif" font-size="10.00">tb_1/test_0/sc_main.cxx</text>
</a>
</g>
<!-- Node2&#45;&gt;Node3 -->
<g id="edge4" class="edge"><title>Node2&#45;&gt;Node3</title>
<path fill="none" stroke="midnightblue" d="M165.202,-54.4794C141.438,-44.2695 110.176,-30.8386 88.7218,-21.6212"/>
<polygon fill="midnightblue" stroke="midnightblue" points="163.983,-57.7649 174.553,-58.4966 166.746,-51.3334 163.983,-57.7649"/>
</g>
<!-- Node4 -->
<g id="node7" class="node"><title>Node4</title>
<a xlink:href="tb__1_2test__0_2test_8cxx.html" target="_top" xlink:title="tb_1/test_0/test.cxx">
<polygon fill="white" stroke="black" points="145.5,-0.5 145.5,-21.5 252.5,-21.5 252.5,-0.5 145.5,-0.5"/>
<text text-anchor="middle" x="199" y="-8.5" font-family="Helvetica,sans-Serif" font-size="10.00">tb_1/test_0/test.cxx</text>
</a>
</g>
<!-- Node2&#45;&gt;Node4 -->
<g id="edge6" class="edge"><title>Node2&#45;&gt;Node4</title>
<path fill="none" stroke="midnightblue" d="M199,-48.1906C199,-39.1684 199,-28.9941 199,-21.5707"/>
<polygon fill="midnightblue" stroke="midnightblue" points="195.5,-48.3619 199,-58.3619 202.5,-48.3619 195.5,-48.3619"/>
</g>
<!-- Node6 -->
<g id="node11" class="node"><title>Node6</title>
<a xlink:href="tb__16_2test__0_2sc__main_8cxx.html" target="_top" xlink:title="tb_16/test_0/sc_main.cxx">
<polygon fill="white" stroke="black" points="269.5,-0.5 269.5,-21.5 404.5,-21.5 404.5,-0.5 269.5,-0.5"/>
<text text-anchor="middle" x="337" y="-8.5" font-family="Helvetica,sans-Serif" font-size="10.00">tb_16/test_0/sc_main.cxx</text>
</a>
</g>
<!-- Node5&#45;&gt;Node6 -->
<g id="edge10" class="edge"><title>Node5&#45;&gt;Node6</title>
<path fill="none" stroke="midnightblue" d="M443.03,-54.6153C418.17,-44.3889 385.328,-30.8796 362.821,-21.6212"/>
<polygon fill="midnightblue" stroke="midnightblue" points="441.886,-57.9292 452.466,-58.4966 444.549,-51.4555 441.886,-57.9292"/>
</g>
<!-- Node7 -->
<g id="node13" class="node"><title>Node7</title>
<a xlink:href="tb__16_2test__0_2test_8cxx.html" target="_top" xlink:title="tb_16/test_0/test.cxx">
<polygon fill="white" stroke="black" points="421.5,-0.5 421.5,-21.5 534.5,-21.5 534.5,-0.5 421.5,-0.5"/>
<text text-anchor="middle" x="478" y="-8.5" font-family="Helvetica,sans-Serif" font-size="10.00">tb_16/test_0/test.cxx</text>
</a>
</g>
<!-- Node5&#45;&gt;Node7 -->
<g id="edge12" class="edge"><title>Node5&#45;&gt;Node7</title>
<path fill="none" stroke="midnightblue" d="M478,-48.1906C478,-39.1684 478,-28.9941 478,-21.5707"/>
<polygon fill="midnightblue" stroke="midnightblue" points="474.5,-48.3619 478,-58.3619 481.5,-48.3619 474.5,-48.3619"/>
</g>
<!-- Node9 -->
<g id="node17" class="node"><title>Node9</title>
<a xlink:href="tb__32_2test__0_2sc__main_8cxx.html" target="_top" xlink:title="tb_32/test_0/sc_main.cxx">
<polygon fill="white" stroke="black" points="551.5,-0.5 551.5,-21.5 686.5,-21.5 686.5,-0.5 551.5,-0.5"/>
<text text-anchor="middle" x="619" y="-8.5" font-family="Helvetica,sans-Serif" font-size="10.00">tb_32/test_0/sc_main.cxx</text>
</a>
</g>
<!-- Node8&#45;&gt;Node9 -->
<g id="edge16" class="edge"><title>Node8&#45;&gt;Node9</title>
<path fill="none" stroke="midnightblue" d="M725.03,-54.6153C700.17,-44.3889 667.328,-30.8796 644.821,-21.6212"/>
<polygon fill="midnightblue" stroke="midnightblue" points="723.886,-57.9292 734.466,-58.4966 726.549,-51.4555 723.886,-57.9292"/>
</g>
<!-- Node10 -->
<g id="node19" class="node"><title>Node10</title>
<a xlink:href="tb__32_2test__0_2test_8cxx.html" target="_top" xlink:title="tb_32/test_0/test.cxx">
<polygon fill="white" stroke="black" points="703.5,-0.5 703.5,-21.5 816.5,-21.5 816.5,-0.5 703.5,-0.5"/>
<text text-anchor="middle" x="760" y="-8.5" font-family="Helvetica,sans-Serif" font-size="10.00">tb_32/test_0/test.cxx</text>
</a>
</g>
<!-- Node8&#45;&gt;Node10 -->
<g id="edge18" class="edge"><title>Node8&#45;&gt;Node10</title>
<path fill="none" stroke="midnightblue" d="M760,-48.1906C760,-39.1684 760,-28.9941 760,-21.5707"/>
<polygon fill="midnightblue" stroke="midnightblue" points="756.5,-48.3619 760,-58.3619 763.5,-48.3619 756.5,-48.3619"/>
</g>
<!-- Node12 -->
<g id="node23" class="node"><title>Node12</title>
<a xlink:href="tb__512_2test__0_2sc__main_8cxx.html" target="_top" xlink:title="tb_512/test_0/sc_main.cxx">
<polygon fill="white" stroke="black" points="833.5,-0.5 833.5,-21.5 974.5,-21.5 974.5,-0.5 833.5,-0.5"/>
<text text-anchor="middle" x="904" y="-8.5" font-family="Helvetica,sans-Serif" font-size="10.00">tb_512/test_0/sc_main.cxx</text>
</a>
</g>
<!-- Node11&#45;&gt;Node12 -->
<g id="edge22" class="edge"><title>Node11&#45;&gt;Node12</title>
<path fill="none" stroke="midnightblue" d="M897.537,-48.4876C899.105,-39.3924 900.884,-29.0756 902.177,-21.5707"/>
<polygon fill="midnightblue" stroke="midnightblue" points="894.084,-47.9126 895.834,-58.3619 900.982,-49.102 894.084,-47.9126"/>
</g>
<!-- Node13 -->
<g id="node25" class="node"><title>Node13</title>
<a xlink:href="tb__512_2test__0_2test_8cxx.html" target="_top" xlink:title="tb_512/test_0/test.cxx">
<polygon fill="white" stroke="black" points="991.5,-0.5 991.5,-21.5 1110.5,-21.5 1110.5,-0.5 991.5,-0.5"/>
<text text-anchor="middle" x="1051" y="-8.5" font-family="Helvetica,sans-Serif" font-size="10.00">tb_512/test_0/test.cxx</text>
</a>
</g>
<!-- Node11&#45;&gt;Node13 -->
<g id="edge24" class="edge"><title>Node11&#45;&gt;Node13</title>
<path fill="none" stroke="midnightblue" d="M931.871,-55.0095C959.771,-44.7023 997.125,-30.903 1022.52,-21.5231"/>
<polygon fill="midnightblue" stroke="midnightblue" points="930.599,-51.7481 922.432,-58.4966 933.025,-58.3143 930.599,-51.7481"/>
</g>
<!-- Node16 -->
<g id="node31" class="node"><title>Node16</title>
<a xlink:href="tb__8_2test__0_2sc__main_8cxx.html" target="_top" xlink:title="tb_8/test_0/sc_main.cxx">
<polygon fill="white" stroke="black" points="1127.5,-0.5 1127.5,-21.5 1256.5,-21.5 1256.5,-0.5 1127.5,-0.5"/>
<text text-anchor="middle" x="1192" y="-8.5" font-family="Helvetica,sans-Serif" font-size="10.00">tb_8/test_0/sc_main.cxx</text>
</a>
</g>
<!-- Node15&#45;&gt;Node16 -->
<g id="edge30" class="edge"><title>Node15&#45;&gt;Node16</title>
<path fill="none" stroke="midnightblue" d="M1192,-48.1906C1192,-39.1684 1192,-28.9941 1192,-21.5707"/>
<polygon fill="midnightblue" stroke="midnightblue" points="1188.5,-48.3619 1192,-58.3619 1195.5,-48.3619 1188.5,-48.3619"/>
</g>
<!-- Node17 -->
<g id="node33" class="node"><title>Node17</title>
<a xlink:href="tb__8_2test__0_2test_8cxx.html" target="_top" xlink:title="tb_8/test_0/test.cxx">
<polygon fill="white" stroke="black" points="1273.5,-0.5 1273.5,-21.5 1380.5,-21.5 1380.5,-0.5 1273.5,-0.5"/>
<text text-anchor="middle" x="1327" y="-8.5" font-family="Helvetica,sans-Serif" font-size="10.00">tb_8/test_0/test.cxx</text>
</a>
</g>
<!-- Node15&#45;&gt;Node17 -->
<g id="edge32" class="edge"><title>Node15&#45;&gt;Node17</title>
<path fill="none" stroke="midnightblue" d="M1225.8,-54.4794C1249.56,-44.2695 1280.82,-30.8386 1302.28,-21.6212"/>
<polygon fill="midnightblue" stroke="midnightblue" points="1224.25,-51.3334 1216.45,-58.4966 1227.02,-57.7649 1224.25,-51.3334"/>
</g>
</g>
</svg>
